<svg width="32" height="32" fill="none" xmlns="http://www.w3.org/2000/svg"><circle cx="16" cy="16" r="16" fill="#5A69E6"/><path d="M6.7 19.74c-.087-2.108.818-5.806 2.743-7.05 2.249-1.514 3.806 1.626 4.245 3.208.332 1.114.527 2.357 1.349 3.233.555.61 1.438.768 2.202.508 1.229-.45 1.391-1.68 1.701-2.512.04-.122.487-1.532.836-2.018.27-.379.729-1.154 1.831-1.136 1.767.195 2.657 2.844 2.963 4.203.08.35.498.587.84.48a.7.7 0 0 0 .48-.84c-.278-1.161-.689-2.315-1.352-3.313-.94-1.442-2.599-2.408-4.286-1.622-1.261.559-1.939 1.87-2.368 3.114-.187.512-.342 1.06-.537 1.568-.155.411-.281.768-.667.815-.609.072-.782-.281-.998-.692-.249-.476-.617-1.99-.75-2.39-.591-1.77-1.611-3.781-3.565-4.282-1.009-.234-2.054.058-2.869.678-2.39 1.881-3.121 5.143-3.164 8.048 0 .357.317.7.684.685.372-.018.682-.303.682-.685z" fill="#fff"/><path d="M25.107 21.052a.71.71 0 0 1-.212-.523.71.71 0 0 1 .212-.522.71.71 0 0 1 .523-.213c.202 0 .371.072.512.213.14.14.212.317.212.522a.71.71 0 0 1-.212.523.702.702 0 0 1-.512.213.715.715 0 0 1-.523-.213z" fill="#000"/></svg>