<svg xmlns="http://www.w3.org/2000/svg" width="136" height="136" viewBox="0 0 136 136">
    <g fill="none" transform="translate(30 22.73)">
        <path fill="#0227CC" d="M64.706 87.27h-52.84s-5.868.49-9.626 7.424C.74 97.462 0 100.59 0 103.754v9.515h76.806v-9c0-1.88-.257-3.752-.806-5.546C72.694 87.935 64.706 87.27 64.706 87.27"/>
        <ellipse cx="38.293" cy="43.695" fill="#333" rx="32.787" ry="32.739"/>
        <path fill="#000" d="M27.711 70.964H48.72v16.783c0 5.791-4.7 10.486-10.5 10.489-5.802 0-10.505-4.696-10.505-10.49V70.965h-.004z" opacity=".1"/>
        <path fill="#A0616A" d="M28.377 70.186h19.685c.368 0 .666.298.666.665v16.118c0 2.782-1.107 5.451-3.078 7.419-1.97 1.968-4.643 3.072-7.43 3.071-5.802 0-10.505-4.696-10.505-10.488V70.85c0-.366.296-.663.662-.665z"/>
        <path fill="#000" d="M27.75 78.886c6.77 2.526 14.223 2.546 21.008.058v-2.581H27.749v2.523z" opacity=".1"/>
        <ellipse cx="38.293" cy="50.221" fill="#A0616A" rx="30.113" ry="30.069"/>
        <path fill="#000" d="M16.843 22.87s12.692 25.723 48.491 10.785L57 20.605l-14.775-5.296-25.38 7.56z" opacity=".1"/>
        <path fill="#333" d="M16.843 22.493s12.692 25.722 48.491 10.78L57 20.223l-14.775-5.295-25.38 7.565z"/>
        <path fill="#333" d="M16.732 20.75c.856-2.646 2.335-5.047 4.313-7.003C26.968 7.9 36.679 6.667 41.659 0c1.193 1.85.27 4.695-1.79 5.49 4.773-.032 10.302-.45 13-4.368 1.361 3.164.776 6.827-1.505 9.41 4.23.2 8.749 3.058 9.015 7.277.183 2.811-1.59 5.472-3.895 7.084-2.304 1.612-5.112 2.353-7.866 2.958-8.04 1.773-37.133 9.193-31.886-7.102z"/>
        <ellipse cx="8.168" cy="50.193" fill="#A0616A" rx="2.802" ry="5.245"/>
        <ellipse cx="68.402" cy="50.193" fill="#A0616A" rx="2.802" ry="5.245"/>
    </g>
</svg>
