<svg xmlns="http://www.w3.org/2000/svg" xmlns:xlink="http://www.w3.org/1999/xlink" width="136" height="136" viewBox="0 0 136 136">
    <defs>
        <path id="prefix__a" d="M28.741.245C23.255.66 6.452 3.378 3.759 4.536 1.397 5.553-2.845 28 4.89 28h46.25C43.885 20.103 30.868-.62 31.553.016c.172.16-.97.089-2.812.229z"/>
        <path id="prefix__c" d="M28.741.245C23.255.66 6.452 3.378 3.759 4.536 1.397 5.553-2.845 28 4.89 28h46.25C43.885 20.103 30.868-.62 31.553.016c.172.16-.97.089-2.812.229z"/>
    </defs>
    <g fill="none" fill-rule="evenodd" transform="translate(13 34)">
        <path fill="#0227CC" fill-rule="nonzero" d="M81.706 76h-52.84s-5.868.49-9.626 7.424c-1.5 2.769-2.24 5.898-2.24 9.06V102h76.806v-9c0-1.88-.257-3.752-.806-5.546C89.694 76.666 81.706 76 81.706 76"/>
        <ellipse cx="55.297" cy="32.739" fill="#333" fill-rule="nonzero" rx="32.787" ry="32.739"/>
        <path fill="#000" fill-rule="nonzero" d="M44.715 60.009h21.008V76.79c0 5.792-4.7 10.487-10.5 10.49-5.801 0-10.504-4.697-10.504-10.49V60.01h-.004z" opacity=".1"/>
        <path fill="#A0616A" fill-rule="nonzero" d="M45.381 59.23h19.684c.368 0 .666.298.666.666v16.117c0 2.783-1.106 5.452-3.077 7.42-1.97 1.967-4.644 3.072-7.43 3.07-5.802 0-10.505-4.695-10.505-10.488v-16.12c0-.365.296-.662.662-.665z"/>
        <path fill="#000" fill-rule="nonzero" d="M44.753 67.93c6.77 2.526 14.224 2.547 21.008.058v-2.58H44.753v2.523z" opacity=".1"/>
        <ellipse cx="55.297" cy="39.265" fill="#A0616A" fill-rule="nonzero" rx="30.113" ry="30.069"/>
        <path fill="#000" fill-rule="nonzero" d="M33.847 11.914S46.538 37.637 82.337 22.7L74.004 9.65 59.228 4.354l-25.381 7.56z" opacity=".1"/>
        <path fill="#333" fill-rule="nonzero" d="M33.847 11.537s12.691 25.723 48.49 10.78l-8.334-13.05-14.775-5.294-25.381 7.564z"/>
        <ellipse cx="25.172" cy="39.237" fill="#A0616A" fill-rule="nonzero" rx="2.802" ry="5.245"/>
        <ellipse cx="85.406" cy="39.237" fill="#A0616A" fill-rule="nonzero" rx="2.802" ry="5.245"/>
        <g transform="translate(0 74)">
            <mask id="prefix__b" fill="#fff">
                <use xlink:href="#prefix__a"/>
            </mask>
            <use fill="#89E97B" fill-rule="nonzero" xlink:href="#prefix__a"/>
            <path fill="#EF7D00" fill-rule="nonzero" d="M-20.543 112.937c.76-.684 1.517-1.365 2.27-2.051.249-.226 3.268.755 3.807.902-.385.374-1.621 2.007-2.29 2.147-.699.144-3.143-.807-3.787-.998m-4.557 3.177c.38-.383 1.614-2.01 2.286-2.148.7-.15 3.14.802 3.79.995-.764.68-1.523 1.366-2.271 2.054-.24.222-3.266-.764-3.805-.902m10.634-.136c-.357.304-1.79 2.001-2.288 2.095-.586.106-3.187-.823-3.79-.973.727-.703 1.474-1.392 2.233-2.079.288-.249 3.316.803 3.845.957m4.557-2.06c-.355.309-1.789 1.997-2.289 2.089-.586.107-3.19-.82-3.788-.97.397-.38 1.69-1.994 2.4-2.108.688-.115 3.049.803 3.677.99m-20.546 8.925c.912.364 2.767.654 2.216 1.4-.495.67-1.083 1.293-1.617 1.95-.281.34-1.312 2.076-1.802 2.2-.582.15-3.446-1.244-4.057-1.466-4.597-1.666-9.09-3.46-13.692-5.125 3.263-4 6.507-8.013 9.854-11.982 1.924.652 3.843 1.33 5.678 2.088 1.606.657.501 1.13-.3 2.18-.54.7-1.109 1.394-1.695 2.08-.598.686-1.215 1.364-1.76 2.067-1.053 1.375-1.513 1.342.473 2.133 2.198.87 4.5 1.603 6.702 2.475m-23.508-.16c4.11-5.323 8.234-10.64 12.34-15.96 3.935 1.552 7.87 3.11 11.808 4.659-1.94 2.512-3.883 5.018-5.824 7.529 3.512 1.387 7.029 2.77 10.539 4.16-2.18 2.815-4.436 5.585-6.53 8.431-7.442-2.941-14.89-5.879-22.333-8.82m24.485 7.348c1.426-1.853 2.854-3.705 4.29-5.56 1.852-2.412 2.687-2.625-.76-3.994-2.467-.981-4.936-1.954-7.404-2.93 1.612-2.093 3.26-4.172 4.798-6.29 1.446-1.997-2.722-2.562-4.877-3.457-1.458-.602-2.945-1.163-4.437-1.724-.79-.3-2.921-1.577-3.768-1.401-1.7.35-3.849 4.409-4.76 5.59l-5.295 6.864c-.754.981-1.51 1.956-2.259 2.934-.508.654-1.017 1.317-1.526 1.97-.152.2 2.126.962 2.472 1.1 6.152 2.44 12.34 4.83 18.491 7.269 3.07 1.213 3.328 1.842 5.036-.372m-13.4-26.404c4.523 1.7 9.033 3.4 13.548 5.101.504.187 4.023 1.357 3.854 1.581-.634.83-1.263 1.66-1.93 2.48-1.306 1.604-2.67 3.186-3.977 4.794 2.542.954 5.111 1.866 7.646 2.823.69.254 2.982.83 3.179 1.253.2.418-1.826 2.258-2.173 2.676-2.496 3.079-5.05 6.132-7.487 9.235-9.43-3.557-18.867-7.108-28.304-10.66 5.218-6.43 10.434-12.857 15.643-19.282m7.67 30.256c1.532.583 4.278 2.331 6.088 1.556 1.902-.819 3.486-4.134 4.587-5.506 1.679-2.092 3.363-4.186 5.04-6.278 1.005-1.251 3.044-2.646 1.32-3.87-2.135-1.515-6.66-2.533-9.363-3.564 1.651-2.061 4.198-4.335 5.23-6.574.692-1.496-2.744-2.126-4.16-2.665-3.041-1.16-6.056-2.341-9.117-3.472-2.03-.752-5.87-2.985-8.14-2.981-2.13.006-3.103 2.494-3.953 3.548-1.739 2.17-3.479 4.338-5.221 6.515-3.398 4.223-6.788 8.452-10.182 12.68 6.14 2.339 12.278 4.677 18.416 7.008 3.158 1.204 6.307 2.402 9.454 3.603m58.72-27.859c-5.214 6.428-10.439 12.855-15.649 19.284-5.78-2.252-11.613-4.45-17.484-6.582.994-1.23 1.925-2.483 2.927-3.714.423-.522 3.285-3.117 3.055-3.66-.228-.54-4.681-1.707-5.449-1.998-1.807-.676-3.577-1.402-5.377-2.082 3.306-3.936 6.437-7.939 9.66-11.905 9.438 3.551 18.88 7.103 28.317 10.657M-5.8 93.496c-1.925.825-3.447 4.124-4.584 5.502-1.72 2.078-3.358 4.18-5.04 6.271-.78.974-3.205 2.77-1.464 3.782 2.601 1.516 6.517 2.507 9.51 3.646-1.752 2.18-3.5 4.36-5.247 6.534-1.136 1.405 3.603 2.48 4.732 2.91l8.7 3.31c2.412.915 5.433 2.602 8.115 2.94 1.887.242 3.373-2.98 4.051-3.823l5.313-6.617c.886-1.103 9.952-12.27 9.782-12.336-6.107-2.323-12.216-4.644-18.322-6.965-3.154-1.203-6.304-2.402-9.456-3.6-1.53-.58-4.275-2.332-6.09-1.554m32.86 27.682l4.048 10.324-9.114-3.705c1.755-2.18 3.315-4.438 5.066-6.619m-2.271 8.012c1.486.6 4.296 2.257 6.01 2.311 1.276.04-1.787-6.554-2.157-7.464l-1.91-4.744c-.764-1.898-1.3-1.342-2.496.115-1.036 1.274-6.187 6.314-5.142 7.532 1.898.748 3.81 1.482 5.695 2.25m1.762-1.818c-1.533-.492-3.007-1.045-4.557-1.514.835-.87 1.666-1.745 2.501-2.616l2.056 4.13m-6.076-19.056c-4.123 5.32-8.239 10.64-12.351 15.959-3.887-1.613-7.82-3.167-11.801-4.658 1.934-2.51 3.882-5.018 5.82-7.527l-10.532-4.16c2.259-2.783 4.343-5.62 6.522-8.435 7.443 2.943 14.89 5.878 22.342 8.82m-27.752-4.231c-1.154 1.522-4.256 3.516-1.558 4.616 2.856 1.165 5.793 2.257 8.7 3.372-1.358 1.706-2.72 3.412-4.074 5.12-1.871 2.351-1.118 2.225 2.202 3.498l6.896 2.65c3.62 1.387 3.401 1.396 5.396-1.102 3.357-4.202 6.76-8.39 10.112-12.597.266-.334 1.726-1.656 1.587-1.99-.122-.29-2.128-.815-2.527-.97-1.317-.503-2.63-1.008-3.942-1.511l-9.468-3.634c-1.667-.637-3.353-1.243-5.029-1.87-.87-.33-2.536-1.346-3.536-1.186-1.46.228-3.998 4.605-4.759 5.604m3.764 1.292c1.037-1.277 1.999-2.568 3.111-3.815 5.988 2.16 11.906 4.395 17.838 6.616-2.546 3.015-4.897 6.102-7.446 9.119-.8.947-1.6 1.892-2.4 2.836-.113.135-2.502-.844-2.893-.99l-3.31-1.237c-1.12-.42.245-1.328.75-1.987 1.18-1.538 2.562-2.991 3.747-4.528 1.066-1.39.701-1.196-1.28-1.983-1.019-.4-2.077-.753-3.124-1.12-1.04-.37-2.07-.756-3.083-1.154-1.556-.618-2.85-.603-1.91-1.757m2.72 26.555c-1.053.956-2.023 1.938-3.018 2.924-.5.496-2.19 2.644-2.947 2.823-.782.178-3.807-.965-4.596-1.194-1.544-.437-3.061-.88-4.63-1.268 1.027-.94 2.069-1.869 3.051-2.842.54-.539 2.136-2.743 3.017-2.92.857-.17 3.697 1.054 4.525 1.29 1.523.433 3.059.804 4.598 1.186m34.94 1.637c-5.57-2.198-11.138-4.398-16.707-6.606-.188-.072 8.436-10.946 9.225-11.979 2.497 6.202 4.988 12.395 7.482 18.585m-9.78-18.362c-1.727 2.26-3.559 4.481-5.209 6.766-.842 1.17-6.248 6.68-4.365 7.481 6.015 2.545 12.277 4.775 18.287 7.31 1.67.706 4.924 1.951 3.914-.587-1.036-2.605-2.077-5.212-3.12-7.823-1.925-4.837-3.857-9.678-5.786-14.517-.952-2.398-3.107.573-3.722 1.37m-10.3-29.89c.15.372.298.745.45 1.117.24.59.477 1.184.715 1.778.048.113.095.229.14.342l1.138 2.819c.812 2.019 1.631 4.037 2.447 6.06-3.42-1.35-6.82-2.714-10.26-4.024-1.788-.681-3.565-1.373-5.342-2.075-.23-.09-.464-.18-.694-.273-.233-.092-.357-.186-.41-.282-.035-.13.102-.318.369-.69.117-.12.24-.245.35-.385.968-1.253 1.942-2.51 2.909-3.763 1.838-2.368 3.738-4.717 5.575-7.093l2.613 6.47m-3.385-9.522c-1.569-.37-2.375 1.585-2.936 2.313-2.451 3.2-4.905 6.4-7.357 9.606-.74.958-3.422 3.255-2.515 4.35.558.67 1.424.902 2.359.932.228.094.446.185.712.29 2.876 1.148 5.76 2.293 8.64 3.443 2.952 1.175 5.898 2.352 8.849 3.528 2.46.978 2.198-.909 1.745-2.039-.36-.897-2.525-6.65-3.961-9.911-1.15-2.88-2.3-5.76-3.455-8.643-.356-.898-.717-3.55-2.081-3.868m-30.467-6.388c-1.697-.676-.115-1.583.657-2.624.6-.816 1.37-1.594 2.021-2.392 1.575.57 17.951 6.572 17.833 6.715-1.686 2.07-3.37 4.138-5.052 6.21-.839 1.03-1.664 2.072-2.525 3.093-.604.715-1.686 2.966-2.91 2.505-1.425-.53-2.872-1.02-4.266-1.594-2.267-.933-1.793-.852-.538-2.483.441-.571 4.881-5.592 4.478-5.753-3.2-1.273-6.506-2.408-9.698-3.677m8.359-35.594c-4.12 5.374-8.23 10.75-12.349 16.123-3.889-1.627-7.821-3.199-11.803-4.71 1.942-2.533 3.881-5.068 5.823-7.6l-10.534-4.207c1.701-2.114 3.302-4.26 4.908-6.412 1.045-1.402.951-2.37 3.01-1.547 1.395.552 2.793 1.113 4.189 1.666 5.586 2.23 11.172 4.46 16.756 6.687m-17.938-8.486c-.86-.33-2.535-1.344-3.538-1.187-1.46.234-3.997 4.603-4.755 5.606-1.155 1.522-4.26 3.515-1.557 4.615 2.856 1.17 5.79 2.26 8.698 3.374-1.36 1.705-2.721 3.413-4.074 5.119-1.873 2.352-1.119 2.225 2.203 3.498 2.294.883 4.598 1.767 6.894 2.644 3.621 1.39 3.404 1.407 5.397-1.096 3.352-4.206 6.762-8.387 10.112-12.595.267-.334 1.723-1.66 1.587-1.992-.12-.29-2.13-.816-2.528-.97-1.314-.502-2.628-1.005-3.942-1.51-3.148-1.208-6.275-2.455-9.459-3.615-1.692-.616-3.364-1.25-5.038-1.891m-4.958 5.32c.606-.82 1.325-1.608 2.023-2.393 1.572.572 17.944 6.571 17.835 6.716-1.69 2.07-3.375 4.135-5.06 6.203-.835 1.034-1.657 2.076-2.522 3.098-.602.716-1.683 2.964-2.905 2.507l-4.436-1.664c-2.254-.848-1.48-1.015-.29-2.52.702-.885 5.115-5.362 4.015-5.8-3.071-1.22-6.254-2.303-9.316-3.525-1.693-.668-.114-1.578.656-2.622m19.81 32.62c5.588 2.225 11.17 4.455 16.758 6.683-4.122 5.373-8.233 10.746-12.349 16.123-3.891-1.63-7.824-3.197-11.803-4.713 1.939-2.533 3.878-5.068 5.82-7.599-3.51-1.405-7.021-2.8-10.531-4.206 1.699-2.114 3.3-4.259 4.906-6.411 1.048-1.399.953-2.37 3.01-1.55 1.395.555 2.795 1.114 4.19 1.673m-9.473 3.65c-1.156 1.522-4.26 3.515-1.558 4.614 2.855 1.168 5.794 2.257 8.698 3.373-1.353 1.702-2.79 3.397-4.072 5.124-.414.552-1.588 1.485-1.212 2.129.326.56 2.679 1.085 3.413 1.366 2.295.885 4.598 1.764 6.896 2.644 3.618 1.39 3.408 1.402 5.393-1.097 3.352-4.206 6.762-8.39 10.113-12.596.266-.336 1.726-1.657 1.588-1.99-.12-.29-2.13-.816-2.529-.972-1.313-.502-2.627-1.003-3.94-1.51-3.152-1.208-6.274-2.451-9.461-3.616-1.691-.615-3.363-1.247-5.034-1.89-.863-.331-2.545-1.341-3.54-1.187-1.46.237-3.997 4.606-4.755 5.608M-5.811 89.17c-5.779-2.253-11.612-4.448-17.482-6.586.996-1.229 1.925-2.48 2.928-3.71.422-.522 3.286-3.12 3.054-3.662-.228-.54-4.679-1.705-5.446-1.991-1.81-.683-3.578-1.41-5.382-2.088 3.304-3.936 6.443-7.938 9.663-11.905C-9.036 62.78.402 66.33 9.839 69.884L-5.81 89.172m14.557-21.22C7.189 67.36 5.632 66.77 4.08 66.17c-3.196-1.215-6.394-2.437-9.595-3.656l-9.43-3.6c-1.53-.583-4.265-2.33-6.076-1.556-1.92.828-3.438 4.125-4.574 5.503-1.713 2.079-3.35 4.189-5.025 6.28-.78.976-3.2 2.772-1.461 3.786 2.594 1.518 6.5 2.507 9.488 3.647-1.659 2.065-4.187 4.338-5.223 6.573-.698 1.493 2.749 2.133 4.154 2.669 3.03 1.156 6.065 2.312 9.093 3.47 1.985.758 5.88 2.99 8.116 2.982 2.134-.008 3.103-2.495 3.945-3.55 1.736-2.171 3.475-4.339 5.213-6.51C4.474 80 6.238 77.793 8.01 75.584c.812-1.012 1.62-2.025 2.434-3.04.467-.583 2.643-2.486 2.419-3.022-.2-.479-3.39-1.292-4.115-1.57m1.618 16.057l1.48 3.41c.047.313.186.69.363 1.075.166.564.393 1.18.772 1.546l1.417 3.26c-3.072-1.053-6.036-2.233-9.114-3.288 1.757-1.98 3.32-4.028 5.082-6.003m-4.99 4.09c-.45.507-1.304 1.176-1.478 1.79-.006.01-.014.017-.02.027-.212.238-.103.422.125.572.012.012.014.029.025.045.538.62 4.398 1.533 5.424 1.89 1.518.532 7.5 3.45 6.309.836-.364-.804-1.557-4.264-2.617-5.74l-1.241-2.722c-1.12-2.457-1.389-2.346-3.394-.17-1.053 1.136-2.051 2.295-3.05 3.455l-.083.016M-22.522 52c-5.78-2.267-11.611-4.475-17.482-6.623.993-1.234 1.923-2.495 2.927-3.732.42-.525 3.284-3.136 3.055-3.68-.229-.545-4.682-1.713-5.45-2.009-1.807-.682-3.575-1.407-5.377-2.091 2.175-2.605 4.233-5.256 6.36-7.88 1.029-1.282 2.06-2.555 3.095-3.837.406-.504 4.225 1.256 5.24 1.624 7.84 2.841 15.52 5.9 23.284 8.839C-12.086 39.074-17.306 45.533-22.522 52m18.673-20.68c-.201-.484-3.39-1.294-4.116-1.57-1.558-.592-3.111-1.188-4.663-1.78-3.2-1.217-6.395-2.44-9.593-3.66-3.143-1.197-6.288-2.399-9.43-3.597-1.533-.582-4.266-2.335-6.077-1.556-1.922.824-3.437 4.128-4.573 5.502-1.717 2.078-3.35 4.186-5.024 6.28-.78.968-3.208 2.772-1.466 3.784 2.61 1.516 6.5 2.508 9.49 3.65-1.748 2.178-3.495 4.356-5.238 6.536-1.084 1.356 3.099 2.292 4.168 2.703 3.032 1.156 6.064 2.315 9.098 3.473 1.98.751 5.877 2.986 8.114 2.98 2.13-.007 3.094-2.494 3.941-3.553 1.743-2.166 3.474-4.339 5.212-6.51 1.773-2.208 3.538-4.416 5.307-6.62.81-1.016 1.617-2.029 2.431-3.045.465-.58 2.643-2.477 2.42-3.016m15.713 59.6c-1.18-.135-2.601-.811-3.512-1.094-.05-.017-.039-.086.011-.177.094-.521 1.572-1.799 1.877-2.111.025-.006.046.011.068.008.209-.2.382-.37.453-.441l.509 1c.749.904 1.347 2.618 1.607 3.13l-1.014-.315M-3.832 55.098l-4.556-1.445c.885-.878 1.636-1.8 2.487-2.684.69 1.378 1.378 2.753 2.07 4.13m-1.022-8.26c1.351 3.445 2.704 6.883 4.06 10.325-3.074-1.161-6.04-2.467-9.115-3.624 1.686-2.238 3.37-4.47 5.055-6.701M.2 59.206c1.327.31-.26-2.758-.41-3.135-.624-1.578-1.252-3.157-1.878-4.73-.574-1.453-1.147-2.898-1.723-4.347-.732-1.849-1.287-1.328-2.452.117-1.018 1.274-6.059 6.404-5.027 7.584 3.625 1.45 7.544 3.592 11.49 4.511m2.044 2.087c-5.56-2.206-11.155-4.368-16.71-6.569 3.084-4.007 6.164-8.012 9.25-12.016 2.488 6.195 4.97 12.387 7.46 18.585M-6 40.923c-1.72 2.248-3.509 4.474-5.228 6.723-.928 1.212-6.247 6.606-4.351 7.529l18.298 7.302c1.71.688 4.894 1.859 3.893-.651-1.033-2.585-2.064-5.174-3.098-7.762-1.937-4.86-3.878-9.723-5.815-14.585-.967-2.425-3.164.744-3.7 1.443m-16.102 52.655c.305.086.617.156.922.236 1.226.176 2.426.558 3.678.952-.9 1.022-2.059 1.928-3.022 2.92l-.122.03c-.583.61-2.153 2.641-2.823 2.797-.725.169-3.85-1.062-4.626-1.27-.376-.101-.758-.194-1.134-.293-1.132-.203-2.248-.575-3.465-.899.593-.543 1.176-1.095 1.765-1.644.433-.421.861-.848 1.256-1.28l.13-.028c.607-.662 2.077-2.648 2.916-2.814.86-.172 3.699 1.055 4.525 1.293m95.747 1.808c.763-.684 1.52-1.365 2.27-2.051.25-.226 3.268.755 3.807.9-.383.375-1.62 2.008-2.286 2.15-.703.142-3.144-.808-3.792-1m-5.52 26.826c4.618 1.744 9.237 3.488 13.857 5.226.447.17 3.61 1.205 3.442 1.43-.638.831-1.266 1.657-1.928 2.48-1.309 1.613-2.673 3.192-3.982 4.803 2.542.953 5.11 1.863 7.647 2.823.691.262 2.982.83 3.182 1.255.197.419-1.83 2.26-2.172 2.683-2.494 3.079-5.057 6.132-7.49 9.242-9.436-3.56-18.868-7.115-28.303-10.67 1.37-1.696 15.443-19.384 15.747-19.27m19.637 26.944c1.673-2.141 3.344-4.283 5.019-6.418.594-.76 3.407-3.136 1.449-3.902-3.155-1.232-6.309-2.461-9.462-3.691 1.648-2.11 4.17-4.429 5.214-6.719.7-1.526-2.745-2.171-4.15-2.723-3.03-1.184-6.039-2.394-9.088-3.547-2.02-.765-5.85-3.05-8.111-3.045-2.132.005-3.088 2.549-3.94 3.626-1.733 2.22-3.473 4.431-5.208 6.652-3.38 4.319-6.759 8.639-10.145 12.96 6.122 2.386 12.237 4.774 18.355 7.16 3.144 1.223 6.285 2.456 9.42 3.676m3.254-12.706c2.076.792 3.09.726 1.856 2.22-.74.901-1.555 1.78-2.303 2.69-1.072 1.3-2.614.046-4.336-.568-1.657-.594-3.277-1.24-4.908-1.867-3.015-1.156-6.124-2.214-9.156-3.344-.608-.222 8.662-11.005 9.714-12.238 1.236.416 2.446.846 3.653 1.293 1.517.566 3.554.796 2.637 1.99-1.672 2.146-3.536 4.212-5.204 6.357-.592.776 6.747 2.972 8.047 3.467M49.2 132.534c-2.486-6.19-4.968-12.384-7.458-18.584 5.56 2.208 11.153 4.369 16.71 6.572-3.083 4.006-6.164 8.011-9.252 12.012m3.084-16.961c-3.047-1.303-6.21-2.482-9.312-3.732-1.065-.431-5.074-2.135-4.123.27l5.736 14.543c1.031 2.616 2.062 5.226 3.09 7.839 1.004 2.541 2.843.212 3.717-1.014 3.193-4.465 6.823-8.768 10.015-13.242 1.019-1.432-7.582-4.003-9.123-4.664m19.84-17.01c.378-.384 1.613-2.009 2.285-2.148.702-.15 3.14.803 3.791.997-.767.68-1.523 1.362-2.272 2.052-.239.224-3.265-.764-3.803-.902m-25.826 19.519c3.072 1.165 6.037 2.467 9.114 3.627-1.684 2.236-3.368 4.465-5.057 6.698-1.35-3.441-2.704-6.884-4.057-10.325m4.363 11.245c1.31-.663 2.437-3.194 3.188-4.217 1.01-1.368 2.058-2.716 3.082-4.073-.021-1.428-7.92-3.703-9.7-4.422-2.008-.81-2.946-1.033-2.195.865.622 1.577 1.243 3.157 1.867 4.735.625 1.584 1.249 3.162 1.87 4.744.232.582.57 3.028 1.888 2.368m30.576-31.933c-.353.308-1.792 2.004-2.29 2.095-.587.107-3.188-.823-3.786-.972.727-.704 1.47-1.39 2.234-2.08.285-.247 3.316.805 3.842.958m3.038-2.061c-.354.309-1.788 1.997-2.285 2.09-.588.109-3.19-.818-3.79-.97.392-.382 1.687-1.996 2.399-2.109.689-.116 3.049.803 3.676.989m-34.94 24.814c1.506.484 2.993 1.01 4.558 1.424-.996.839-1.687 1.814-2.537 2.706-.677-1.38-1.347-2.755-2.02-4.13M63.73 104.26c.912.362 2.767.652 2.216 1.398-.494.67-1.085 1.293-1.617 1.95-.281.34-1.312 2.078-1.803 2.2-.58.15-3.444-1.245-4.058-1.465-4.597-1.667-9.091-3.462-13.689-5.126 3.262-4 6.503-8.013 9.851-11.982 1.925.654 3.843 1.33 5.679 2.09 1.606.654.503 1.127-.3 2.178-.542.7-1.109 1.396-1.696 2.08-.594.686-1.215 1.364-1.76 2.069-1.053 1.373-1.513 1.341.474 2.13 2.199.871 4.501 1.602 6.703 2.478m-21.99-.162c4.112-5.323 8.232-10.64 12.344-15.96 3.938 1.554 7.87 3.11 11.807 4.66-1.939 2.511-3.883 5.019-5.824 7.529 3.511 1.387 7.03 2.77 10.537 4.16-2.18 2.812-4.434 5.585-6.528 8.43-7.44-2.941-14.892-5.879-22.335-8.82m24.486 8.379c1.426-1.85 2.854-3.703 4.285-5.556 1.857-2.413 2.691-2.627-.755-3.996-2.467-.981-4.936-1.954-7.405-2.932 1.614-2.09 3.26-4.17 4.799-6.289 1.446-1.995-2.72-2.563-4.874-3.454-1.461-.603-2.95-1.165-4.44-1.726-.789-.3-2.922-1.576-3.77-1.401-1.698.35-3.846 4.409-4.757 5.59-1.766 2.286-3.53 4.577-5.298 6.866-.752.979-1.51 1.954-2.258 2.932-.509.656-1.018 1.317-1.526 1.97-.152.202 2.125.962 2.474 1.1 6.149 2.44 12.336 4.829 18.49 7.269 3.067 1.213 3.328 1.842 5.035-.372M52.822 85.04c4.525 1.703 9.035 3.402 13.552 5.104.502.187 4.02 1.353 3.852 1.578-.633.834-1.264 1.662-1.93 2.481-1.307 1.605-2.669 3.187-3.977 4.796 2.542.951 5.113 1.866 7.645 2.822.689.257 2.984.83 3.183 1.255.197.417-1.828 2.255-2.175 2.675-2.493 3.078-5.052 6.13-7.487 9.231-9.43-3.555-18.87-7.105-28.303-10.656 5.216-6.429 10.432-12.859 15.641-19.286m7.673 31.29c1.535.583 4.28 2.33 6.088 1.555 1.904-.816 3.488-4.133 4.59-5.504 1.677-2.093 3.362-4.188 5.038-6.28 1.003-1.251 3.04-2.646 1.32-3.87-2.138-1.515-6.661-2.532-9.364-3.563 1.653-2.063 4.2-4.336 5.232-6.576.693-1.495-2.747-2.124-4.162-2.664-3.04-1.16-6.055-2.34-9.117-3.471-2.028-.752-5.869-2.988-8.138-2.981-2.131.005-3.104 2.492-3.953 3.548-1.74 2.17-3.48 4.337-5.222 6.514-3.4 4.223-6.788 8.454-10.183 12.682 6.141 2.337 12.28 4.677 18.417 7.007 3.157 1.203 6.307 2.402 9.454 3.604m-3.565 24.866c3.083-4.023 6.176-8.042 9.259-12.065l2.314-3.013c1.139-1.482 1.776-.631 3.69.155 2.95 1.202 5.923 2.356 8.888 3.536l-5.826 7.589c3.515 1.392 7.025 2.793 10.538 4.185-2.175 2.835-4.43 5.636-6.53 8.502-7.44-2.962-14.888-5.928-22.333-8.889m24.487 8.45c1.429-1.852 2.853-3.707 4.284-5.56 1.858-2.41 2.691-2.625-.757-3.995-2.464-.978-4.935-1.955-7.403-2.928 1.612-2.092 3.265-4.17 4.798-6.292 1.444-1.996-2.722-2.56-4.874-3.451-1.461-.61-2.946-1.162-4.442-1.726-.789-.3-2.913-1.58-3.77-1.403-1.75.36-3.776 4.429-4.743 5.626-1.822 2.254-3.553 4.548-5.307 6.831-.754.973-1.509 1.955-2.262 2.93-.506.658-1.018 1.312-1.522 1.972-.154.2 2.121.956 2.47 1.096 6.15 2.442 12.338 4.83 18.493 7.273 3.064 1.206 3.324 1.844 5.035-.374m37.336-5.754c-5.78-2.268-11.614-4.474-17.486-6.622.998-1.237 1.928-2.496 2.93-3.732.422-.528 3.286-3.137 3.058-3.68-.232-.548-4.683-1.715-5.45-2.008-1.81-.68-3.578-1.408-5.378-2.093 2.175-2.604 4.233-5.254 6.36-7.88 1.024-1.281 2.06-2.555 3.094-3.839.407-.5 4.225 1.259 5.24 1.625 7.838 2.842 15.52 5.9 23.285 8.84-5.216 6.462-10.435 12.922-15.653 19.39m3.304-.59c1.742-2.229 3.476-4.466 5.213-6.695 1.77-2.273 3.536-4.542 5.307-6.808.81-1.046 1.615-2.087 2.43-3.133.468-.597 2.646-2.548 2.42-3.1-.204-.5-3.39-1.333-4.116-1.62-1.557-.606-3.111-1.22-4.665-1.829-3.2-1.251-6.392-2.51-9.594-3.764-3.143-1.229-6.286-2.466-9.43-3.698-1.529-.598-4.263-2.402-6.07-1.602-1.925.85-3.443 4.247-4.576 5.66-1.718 2.135-3.353 4.304-5.026 6.459-.78.996-3.207 2.85-1.462 3.89 2.608 1.557 6.498 2.582 9.489 3.754-1.75 2.24-3.497 4.479-5.24 6.723-1.081 1.391 3.099 2.355 4.169 2.778 3.032 1.188 6.066 2.381 9.096 3.574m-4.567-21.356c.608-.82 1.323-1.61 2.023-2.39 1.57.568 17.944 6.566 17.832 6.714-1.688 2.068-3.374 4.134-5.056 6.205-.836 1.034-1.656 2.075-2.525 3.1-.6.713-1.686 2.962-2.904 2.503-1.484-.557-2.959-1.107-4.435-1.664-2.254-.846-1.48-1.015-.294-2.52.706-.882 5.12-5.36 4.016-5.8-3.068-1.224-6.253-2.304-9.316-3.528-1.694-.666-.11-1.578.66-2.619m24.412 3.167c-4.12 5.372-8.233 10.749-12.345 16.123-3.895-1.63-7.829-3.198-11.806-4.714l5.82-7.597c-3.509-1.402-7.021-2.806-10.532-4.205 1.699-2.116 3.3-4.26 4.906-6.413 1.048-1.405.953-2.37 3.011-1.548 1.394.554 2.792 1.112 4.191 1.669l16.755 6.685m-19.456-7.453c-.862-.33-2.538-1.344-3.538-1.187-1.46.236-4 4.606-4.758 5.606-1.152 1.52-4.257 3.515-1.557 4.615 2.857 1.168 5.796 2.261 8.698 3.375-1.357 1.705-2.72 3.41-4.074 5.116-1.872 2.353-1.116 2.228 2.204 3.501 2.295.882 4.595 1.766 6.896 2.642 3.62 1.392 3.401 1.405 5.397-1.096 3.347-4.207 6.758-8.384 10.11-12.595.267-.333 1.722-1.658 1.588-1.99-.122-.29-2.13-.817-2.528-.971-1.316-.502-2.631-1.004-3.94-1.51-3.154-1.208-6.278-2.452-9.462-3.614-1.693-.613-3.363-1.25-5.036-1.892M44.767 83.623c-.166.216-.322.437-.483.654-.074.077-.147.149-.214.236-1.025 1.319-2.061 2.632-3.112 3.942-1.832 2.284-3.595 4.605-5.38 6.91-.874-2.157-1.74-4.308-2.615-6.467l-.45-1.119c-.24-.59-.48-1.184-.718-1.777-.048-.113-.09-.228-.138-.34-.38-.94-.758-1.88-1.14-2.82l-2.448-6.061c5.446 2.148 10.92 4.253 16.365 6.396.3.147.376.293.333.447m-.825-2.405c-.34-.107-.644-.204-.85-.291-2.851-1.198-5.748-2.386-8.679-3.484-2.981-1.117-5.905-2.314-8.846-3.481-2.487-.99-2.214.874-1.748 2.04.36.898 2.524 6.634 3.965 9.895 1.152 2.884 2.305 5.767 3.46 8.648.348.873.698 3.558 2.088 3.873 1.605.364 2.408-1.625 2.939-2.312 2.46-3.21 5.093-6.373 7.45-9.62.684-.944 2.958-2.94 2.52-4.108-.003-.004 0-.011 0-.018l-.014-.015c-.025-.064-.025-.136-.07-.192-.5-.649-1.315-.888-2.215-.936m73.753 7.253c-5.216 6.428-10.438 12.855-15.65 19.284-5.78-2.251-11.612-4.449-17.483-6.584.995-1.229 1.927-2.481 2.927-3.71.425-.524 3.287-3.12 3.054-3.663-.227-.541-4.678-1.706-5.447-1.996-1.808-.678-3.576-1.402-5.377-2.083 3.304-3.936 6.434-7.937 9.658-11.905l28.32 10.656M88.385 75.944c-1.924.825-3.45 4.125-4.585 5.5-1.718 2.079-3.357 4.184-5.038 6.275-.78.972-3.208 2.767-1.467 3.781 2.601 1.515 6.519 2.506 9.513 3.646-1.753 2.18-3.5 4.359-5.25 6.533-1.135 1.407 3.603 2.48 4.732 2.911 2.9 1.104 5.797 2.206 8.7 3.309 2.413.916 5.435 2.603 8.118 2.94 1.886.243 3.37-2.98 4.048-3.822l5.316-6.616c.886-1.104 9.952-12.271 9.778-12.337-6.104-2.325-12.212-4.643-18.32-6.966-3.154-1.204-6.303-2.402-9.456-3.6-1.531-.582-4.273-2.333-6.089-1.553m26.274 13.786c-4.124 5.32-8.238 10.639-12.351 15.959-3.888-1.613-7.82-3.167-11.799-4.658 1.932-2.51 3.878-5.02 5.818-7.528-3.51-1.388-7.023-2.774-10.533-4.16 2.26-2.783 4.342-5.62 6.52-8.433 7.446 2.94 14.897 5.877 22.345 8.82m-27.752-3.2c-1.156 1.522-4.26 3.518-1.556 4.615 2.853 1.167 5.793 2.26 8.697 3.373-1.356 1.707-2.72 3.41-4.073 5.122-1.871 2.35-1.118 2.224 2.204 3.498 2.292.883 4.595 1.763 6.894 2.648 3.62 1.387 3.403 1.398 5.395-1.102 3.355-4.204 6.762-8.39 10.111-12.596.267-.335 1.725-1.656 1.589-1.99-.12-.291-2.13-.816-2.528-.971-1.315-.502-2.629-1.008-3.94-1.51l-9.47-3.635c-1.663-.636-3.349-1.244-5.024-1.869-.874-.33-2.54-1.348-3.539-1.186-1.46.228-3.998 4.604-4.759 5.603m3.763 1.293c1.037-1.278 1.999-2.567 3.114-3.815 5.987 2.16 11.904 4.396 17.835 6.616-2.547 3.015-4.897 6.102-7.444 9.118-.8.947-1.598 1.892-2.4 2.837-.115.135-2.506-.844-2.894-.99-1.101-.416-2.205-.827-3.308-1.237-1.123-.42.245-1.33.747-1.987 1.18-1.537 2.562-2.995 3.749-4.53 1.064-1.389.702-1.194-1.28-1.98-1.02-.402-2.079-.756-3.124-1.123-1.04-.367-2.07-.755-3.08-1.153-1.559-.62-2.855-.602-1.915-1.756m2.084 46.786c.681-.116 3.039.803 3.674.989-.352.308-1.79 1.998-2.286 2.09-.586.109-3.188-.82-3.79-.97.39-.383 1.691-1.995 2.403-2.109m.636-21.264c-1.053.954-2.024 1.938-3.02 2.924-.498.497-2.187 2.645-2.946 2.823-.782.178-3.808-.966-4.596-1.192-1.543-.436-3.063-.88-4.63-1.271 1.027-.939 2.07-1.867 3.05-2.842.537-.538 2.138-2.743 3.018-2.92.858-.17 3.697 1.055 4.525 1.29 1.52.431 3.058.806 4.599 1.188m7.596 18.125c-.384.366-1.614 1.943-2.294 2.081-.698.144-3.138-.78-3.784-.964.392-.38 1.69-1.996 2.398-2.11.69-.105 3.051.81 3.679.993m-15.192 3.165c.383-.366 1.615-1.942 2.284-2.086.705-.144 3.143.782 3.792.97-.391.377-1.687 1.985-2.403 2.103-.683.111-3.045-.807-3.673-.987m4.558-3.114c.76-.683 1.518-1.37 2.267-2.053.25-.223 3.27.757 3.809.9-.387.377-1.617 2.01-2.291 2.15-.698.15-3.14-.803-3.785-.997M33.273 31.036c2.078.791 3.09.725 1.857 2.221-.74.902-1.555 1.782-2.3 2.688-1.074 1.301-2.618.048-4.337-.568-1.66-.594-3.28-1.24-4.909-1.864-3.013-1.158-6.125-2.216-9.159-3.346-.603-.223 8.666-11.005 9.716-12.237 1.234.412 2.446.845 3.651 1.293 1.52.565 3.557.795 2.635 1.987-1.666 2.148-3.535 4.215-5.196 6.36-.598.774 6.742 2.97 8.041 3.466m-21.914-.313c3.082-4.025 6.174-8.046 9.26-12.067l2.316-3.01c1.136-1.485 1.772-.633 3.69.153 2.948 1.202 5.92 2.356 8.887 3.536-1.944 2.525-3.883 5.058-5.826 7.588 3.513 1.394 7.026 2.791 10.537 4.188-2.176 2.834-4.428 5.635-6.528 8.5l-22.336-8.888m24.486 8.446c1.43-1.85 2.855-3.703 4.288-5.56 1.855-2.405 2.689-2.623-.758-3.99-2.465-.98-4.935-1.954-7.402-2.93 1.609-2.09 3.264-4.172 4.797-6.29 1.443-1.996-2.722-2.56-4.878-3.453-1.459-.608-2.944-1.163-4.438-1.725-.79-.302-2.912-1.58-3.769-1.405-1.754.363-3.776 4.43-4.745 5.626-1.821 2.255-3.554 4.548-5.307 6.832-.757.974-1.512 1.954-2.26 2.932-.507.656-1.02 1.312-1.526 1.97-.153.199 2.125.956 2.471 1.095 6.152 2.443 12.339 4.832 18.492 7.271 3.068 1.211 3.327 1.846 5.034-.373M3.624 22.059C1.143 15.867-1.343 9.675-3.832 3.474c5.561 2.21 11.153 4.372 16.71 6.573-3.082 4.007-6.165 8.009-9.253 12.012M6.706 6.13C3.66 4.826.5 3.649-2.603 2.396c-1.066-.428-5.072-2.132-4.124.27C-4.813 7.515-2.9 12.365-.99 17.212l3.093 7.837c1.003 2.543 2.845.214 3.714-1.009 3.194-4.468 6.825-8.77 10.017-13.245C16.85 9.362 8.25 6.791 6.707 6.131m15.84 6.637c4.616 1.743 9.24 3.484 13.855 5.224.45.171 3.612 1.206 3.446 1.432-.637.83-1.269 1.657-1.933 2.48-1.306 1.612-2.669 3.193-3.979 4.803 2.542.952 5.113 1.861 7.649 2.82.689.264 2.981.834 3.18 1.258.197.418-1.828 2.259-2.172 2.684-2.49 3.078-5.057 6.134-7.487 9.24L6.802 32.038C8.17 30.343 22.24 12.656 22.548 12.768M30.02 43.02c1.534.583 4.266 2.334 6.071 1.558 1.9-.817 3.475-4.136 4.575-5.501 1.672-2.095 3.345-4.193 5.02-6.284.592-.742 3.405-3.07 1.446-3.818-3.153-1.207-6.308-2.409-9.46-3.614 1.649-2.064 4.172-4.333 5.211-6.575.697-1.497-2.743-2.127-4.149-2.667-3.029-1.158-6.037-2.342-9.085-3.47-2.023-.75-5.85-2.989-8.113-2.981-2.131.005-3.092 2.493-3.94 3.55-1.732 2.171-3.474 4.335-5.21 6.51L2.245 32.414c6.118 2.333 12.236 4.671 18.356 7.008 3.145 1.197 6.282 2.403 9.42 3.597m3.6 47.183c-.495-1.14-.99-2.282-1.487-3.42-.046-.31-.182-.677-.354-1.056-.168-.566-.395-1.184-.774-1.552-.474-1.087-.945-2.176-1.417-3.264 3.072 1.053 6.036 2.235 9.114 3.288-1.76 1.981-3.325 4.026-5.082 6.004m7.851-6.518c-.501-.611-4.413-1.544-5.412-1.894-1.464-.512-7.498-3.447-6.32-.862.364.8 1.557 4.258 2.618 5.746.407.894.81 1.787 1.218 2.678 1.12 2.454 1.464 2.485 3.434.231 1.008-1.152 2.016-2.302 3.021-3.453l.098-.018c.387-.492 1.181-1.126 1.416-1.714.027-.034.055-.063.083-.095.218-.25.098-.442-.148-.601-.005-.003-.005-.011-.008-.018m-16.44-16.83c3.083-4.018 6.175-8.04 9.257-12.062.776-1.004 1.546-2.013 2.314-3.017 1.14-1.479 1.777-.623 3.691.156 2.95 1.202 5.922 2.357 8.89 3.535-1.938 2.53-3.883 5.056-5.828 7.589 3.518 1.393 7.026 2.792 10.539 4.189-2.174 2.836-4.432 5.632-6.526 8.502-7.446-2.966-14.89-5.926-22.338-8.892m25.167 9.483c1.549-1.852 3.098-3.705 4.65-5.555.455-.552 2.242-1.948 2.074-2.584-.192-.71-2.058-1.083-2.893-1.406-2.632-1.023-5.355-1.964-8.032-2.938 1.744-2.09 3.54-4.17 5.204-6.288 1.567-1.996-2.953-2.558-5.287-3.45-1.583-.606-3.198-1.164-4.816-1.732-.856-.294-3.17-1.575-4.086-1.401-1.902.363-4.099 4.435-5.147 5.629-1.975 2.253-3.855 4.545-5.757 6.828-.817.98-1.64 1.953-2.452 2.932-.55.654-1.103 1.316-1.654 1.973-.166.199 2.305.959 2.679 1.094 6.671 2.438 13.386 4.833 20.058 7.27 3.321 1.213 3.61 1.845 5.459-.372m-1.72-9.168c2.119.81 3.04.714 1.859 2.222-.716.916-1.555 1.786-2.306 2.689-1.073 1.3-2.616.05-4.34-.57-1.656-.59-3.28-1.236-4.911-1.863-3.013-1.158-6.127-2.218-9.162-3.345-.609-.225 8.67-11.004 9.722-12.238 1.207.445 2.449.846 3.656 1.294 1.511.561 3.556.794 2.635 1.99-1.67 2.145-3.536 4.213-5.204 6.356-.597.773 6.746 2.966 8.051 3.464m-12.36-18.267c4.523 1.7 9.031 3.399 13.55 5.104.503.182 4.02 1.353 3.853 1.58-.635.827-1.264 1.658-1.928 2.479-1.306 1.607-2.672 3.187-3.98 4.796 2.543.951 5.11 1.862 7.647 2.824.688.257 2.98.828 3.178 1.25.201.417-1.824 2.26-2.171 2.678-2.494 3.078-5.057 6.13-7.488 9.231-9.433-3.552-18.865-7.106-28.304-10.656 5.212-6.432 10.43-12.857 15.642-19.286m9.13 31.287c1.535.587 4.27 2.333 6.077 1.558 1.901-.812 3.48-4.133 4.579-5.503 1.677-2.095 3.35-4.189 5.028-6.28.776-.975 3.207-2.777 1.462-3.787-2.607-1.511-6.494-2.509-9.487-3.649 1.648-2.059 4.191-4.333 5.22-6.574.69-1.495-2.738-2.125-4.155-2.667-3.032-1.156-6.043-2.34-9.097-3.473-2.024-.747-5.856-2.983-8.124-2.976-2.126.005-3.092 2.492-3.945 3.547-1.735 2.168-3.471 4.341-5.211 6.513-3.385 4.23-6.772 8.455-10.159 12.683 6.132 2.34 12.25 4.674 18.38 7.011 3.147 1.201 6.29 2.396 9.431 3.597m-26.44-21.994c-2.486-6.198-4.965-12.39-7.447-18.583 5.57 2.212 11.138 4.43 16.71 6.642-3.07 3.984-6.195 7.952-9.264 11.943m1.576-15.922c-3.082-1.246-6.203-2.449-9.288-3.695-.93-.376-5.11-2.237-4.148.201l5.757 14.618 3.064 7.78c.99 2.517 2.81.285 3.74-.945 3.336-4.416 6.676-8.83 10.01-13.246.934-1.545-7.488-4.048-9.133-4.714m-2.947 3.532c1.51.487 2.97 1.094 4.558 1.495-.945.84-1.725 1.75-2.552 2.635l-2.006-4.13m-3.038-2.065l9.114 3.703c-1.756 2.183-3.314 4.442-5.066 6.623L14.397 43.74m4.36 12.24c2.603-2.257 4.312-5.626 6.275-8.213.01-1.397-7.936-3.76-9.712-4.477-1.993-.802-2.924-.992-2.195.856.573 1.445 1.143 2.885 1.711 4.33.626 1.572 1.246 3.147 1.868 4.721.154.39 1.03 3.665 2.052 2.783m57.16-5.157c-1.695-.677-.114-1.586.66-2.624.6-.818 1.372-1.596 2.02-2.394 1.576.568 17.95 6.573 17.833 6.715-1.685 2.07-3.369 4.137-5.054 6.21-.836 1.031-1.663 2.07-2.525 3.093-.601.714-1.684 2.966-2.906 2.506-1.426-.532-2.876-1.023-4.267-1.595-2.268-.933-1.796-.852-.538-2.484.44-.569 4.882-5.59 4.479-5.75-3.2-1.273-6.509-2.408-9.701-3.676m6.84-34.564c-4.123 5.373-8.233 10.75-12.35 16.123-3.89-1.628-7.824-3.199-11.804-4.71 1.943-2.535 3.88-5.07 5.823-7.602-3.511-1.4-7.022-2.804-10.532-4.204 1.701-2.115 3.301-4.262 4.906-6.413 1.045-1.403.953-2.37 3.011-1.547C63.207 8.46 64.604 9.02 66 9.574c5.586 2.23 11.172 4.46 16.757 6.687M64.82 7.775c-.861-.33-2.536-1.344-3.54-1.187-1.46.235-3.997 4.603-4.754 5.607-1.155 1.52-4.26 3.516-1.557 4.614 2.857 1.168 5.79 2.26 8.697 3.375-1.356 1.705-2.718 3.412-4.073 5.118-1.875 2.35-1.119 2.226 2.202 3.501 2.295.88 4.597 1.766 6.895 2.643 3.621 1.387 3.404 1.404 5.397-1.097 3.35-4.207 6.76-8.388 10.11-12.595.266-.336 1.725-1.659 1.59-1.993-.124-.29-2.13-.816-2.531-.97-1.313-.501-2.628-1.005-3.94-1.51-3.152-1.21-6.276-2.454-9.461-3.615-1.693-.616-3.362-1.25-5.034-1.891m-4.956 4.288c.603-.823 1.32-1.61 2.02-2.394 1.572.568 17.945 6.57 17.834 6.716-1.686 2.068-3.372 4.136-5.055 6.204-.838 1.034-1.658 2.075-2.525 3.099-.603.713-1.684 2.962-2.906 2.506l-4.436-1.666c-2.253-.846-1.477-1.015-.29-2.518.701-.886 5.117-5.362 4.014-5.8-3.068-1.223-6.25-2.304-9.317-3.527-1.691-.666-.113-1.578.66-2.62M.725 7.604C3.8 8.766 6.763 10.07 9.84 11.231c-1.685 2.236-3.368 4.466-5.053 6.698C3.431 14.487 2.078 11.047.725 7.604m4.364 12.279c1.31-.666 2.437-3.196 3.191-4.217 1.008-1.37 2.055-2.718 3.078-4.072-.019-1.431-7.917-3.704-9.696-4.424-2.011-.81-2.948-1.034-2.2.862l1.87 4.739 1.871 4.742c.23.582.57 3.03 1.886 2.37m77.624 25.833c5.585 2.226 11.168 4.454 16.755 6.682-4.12 5.372-8.233 10.743-12.35 16.123-3.892-1.632-7.824-3.2-11.799-4.714 1.936-2.534 3.875-5.067 5.816-7.6-3.51-1.404-7.02-2.8-10.53-4.206 1.7-2.113 3.3-4.257 4.905-6.41 1.048-1.398.954-2.37 3.01-1.549 1.398.556 2.794 1.114 4.193 1.674m-10.995 2.616c-1.155 1.522-4.26 3.514-1.558 4.613 2.856 1.168 5.795 2.258 8.699 3.373-1.353 1.703-2.787 3.398-4.073 5.125-.414.55-1.587 1.485-1.212 2.13.328.56 2.679 1.083 3.412 1.364 2.296.885 4.597 1.766 6.895 2.644 3.622 1.391 3.408 1.404 5.398-1.097 3.35-4.206 6.758-8.39 10.111-12.594.268-.338 1.725-1.658 1.588-1.992-.122-.29-2.13-.815-2.53-.972-1.313-.502-2.627-1.003-3.937-1.507-3.154-1.21-6.276-2.453-9.466-3.618-1.689-.614-3.359-1.247-5.034-1.89-.86-.331-2.54-1.342-3.536-1.186-1.462.234-4 4.605-4.757 5.607M88.37 71.619c-5.776-2.253-11.61-4.449-17.479-6.586.996-1.226 1.927-2.478 2.928-3.71.422-.522 3.284-3.12 3.056-3.66-.228-.543-4.683-1.708-5.446-1.99-1.811-.684-3.58-1.41-5.383-2.09 3.303-3.938 6.44-7.938 9.66-11.907 9.441 3.556 18.88 7.103 28.32 10.659L88.37 71.619m14.56-22.251c-1.555-.593-3.11-1.184-4.665-1.782-3.195-1.217-6.393-2.44-9.594-3.655l-9.43-3.6c-1.53-.585-4.265-2.333-6.075-1.557-1.918.827-3.439 4.127-4.573 5.503-1.716 2.078-3.352 4.189-5.027 6.28-.78.975-3.198 2.77-1.463 3.785 2.596 1.519 6.503 2.509 9.49 3.647-1.658 2.064-4.182 4.337-5.224 6.574-.697 1.494 2.749 2.134 4.155 2.668l9.095 3.47c1.982.759 5.88 2.989 8.114 2.982 2.132-.008 3.102-2.494 3.945-3.55 1.736-2.17 3.476-4.338 5.211-6.511 1.771-2.206 3.533-4.415 5.306-6.623.812-1.012 1.62-2.025 2.434-3.04.467-.581 2.642-2.485 2.419-3.02-.203-.482-3.388-1.295-4.117-1.571M71.664 35.482c-5.783-2.269-11.614-4.477-17.483-6.621.993-1.235 1.927-2.498 2.927-3.734.422-.526 3.282-3.137 3.054-3.678-.229-.548-4.68-1.717-5.446-2.01-1.81-.683-3.58-1.408-5.379-2.091 2.175-2.607 4.234-5.257 6.36-7.882 1.027-1.282 2.06-2.555 3.097-3.837.406-.503 4.22 1.257 5.237 1.624 7.836 2.843 15.519 5.9 23.284 8.84-5.216 6.462-10.435 12.924-15.65 19.389m21.708-20.678c-.203-.485-3.39-1.297-4.113-1.572-1.56-.592-3.114-1.187-4.666-1.778-3.2-1.221-6.397-2.443-9.595-3.66-3.143-1.198-6.286-2.4-9.432-3.597-1.53-.585-4.262-2.337-6.074-1.56-1.922.827-3.439 4.13-4.573 5.505-1.716 2.075-3.35 4.186-5.024 6.28-.78.966-3.206 2.77-1.463 3.783 2.608 1.516 6.497 2.509 9.487 3.65-1.75 2.18-3.494 4.356-5.237 6.536-1.084 1.356 3.097 2.293 4.17 2.702 3.03 1.156 6.064 2.315 9.096 3.475 1.979.751 5.874 2.984 8.113 2.978 2.13-.009 3.097-2.494 3.943-3.552 1.742-2.165 3.475-4.34 5.211-6.51l5.305-6.618c.812-1.017 1.618-2.03 2.432-3.048.467-.58 2.647-2.477 2.42-3.014M34.615 88.138l-.487-1.013c-.7-.906-1.257-2.607-1.501-3.116l.894.298c1.218.11 2.767.857 3.662 1.153-.746.737-1.426 1.471-2.077 2.24-.029.005-.053-.014-.079-.011-.139.149-.274.3-.412.449m16.24-63.015c-.353.31-1.79 1.999-2.289 2.09-.584.107-3.188-.82-3.787-.97.391-.383 1.688-1.994 2.402-2.108.677-.119 3.039.803 3.675.988m-10.634.072c.38-.369 1.613-1.945 2.283-2.087.7-.147 3.143.782 3.792.97-.394.377-1.688 1.984-2.406 2.101-.681.114-3.044-.804-3.67-.984m13.673-3.167c-.38.365-1.613 1.946-2.288 2.08-.7.146-3.141-.777-3.788-.963.393-.38 1.69-1.993 2.397-2.109.693-.107 3.052.81 3.679.992M76.68.377c-1.533-.49-3.006-1.046-4.558-1.514.834-.87 1.667-1.746 2.503-2.616.683 1.375 1.37 2.75 2.055 4.13M53.217-18.62c-1.022-.403-2.078-.754-3.124-1.122-1.04-.372-2.074-.755-3.086-1.154-1.556-.62-2.85-.605-1.91-1.757 1.039-1.278 2-2.568 3.115-3.816 5.985 2.163 11.906 4.397 17.834 6.618-2.547 3.014-4.892 6.102-7.442 9.119-.8.944-1.599 1.892-2.4 2.836-.116.135-2.504-.843-2.892-.99-1.105-.418-2.207-.827-3.314-1.237-1.119-.422.246-1.33.75-1.986 1.182-1.54 2.563-2.994 3.747-4.53 1.066-1.388.702-1.196-1.278-1.98m-6.172 40.662c-.695.15-3.136-.8-3.785-.997.76-.68 1.518-1.367 2.271-2.052.248-.222 3.269.76 3.806.902-.385.376-1.62 2.009-2.292 2.147M78.2 2.442c-3.037-1.234-6.074-2.47-9.115-3.703C70.843-3.444 72.4-5.7 74.153-7.883 75.5-4.439 76.852-.999 78.2 2.442M75.343-8.733c-.763-1.9-1.302-1.342-2.494.113-1.041 1.275-6.188 6.313-5.144 7.53 1.9.748 3.81 1.482 5.696 2.251 1.486.6 4.295 2.258 6.01 2.313 1.273.037-1.79-6.556-2.157-7.467-.638-1.58-1.273-3.162-1.911-4.74M.725 9.669c1.505.486 2.99 1.011 4.558 1.425-.997.84-1.686 1.813-2.539 2.705L.724 9.67m54.689 51.658c.383-.369 1.614-1.95 2.287-2.083.702-.146 3.14.78 3.79.966-.399.375-1.689 1.992-2.407 2.106-.675.113-3.04-.806-3.67-.989m13.672-3.166c-.378.367-1.615 1.95-2.288 2.085-.696.146-3.139-.784-3.788-.969.393-.374 1.688-1.99 2.402-2.103.686-.117 3.049.804 3.674.987m-6.714 2.11c.68-.115 3.047.81 3.675.988-.357.31-1.79 1.996-2.286 2.091-.596.106-3.193-.825-3.79-.972.391-.378 1.69-1.991 2.401-2.107m-3.92-3.086c.759-.686 1.517-1.366 2.267-2.054.245-.221 3.27.761 3.81.902-.39.378-1.621 2.007-2.289 2.148-.706.147-3.14-.804-3.788-.996m15.15 17.807c.305.087.616.155.92.237 1.225.173 2.426.557 3.68.952-.898 1.02-2.062 1.926-3.024 2.923-.041.005-.08.015-.12.025-.58.61-2.152 2.642-2.825 2.798-.724.17-3.85-1.061-4.62-1.267-.381-.104-.76-.196-1.14-.295-1.132-.205-2.247-.576-3.463-.898.592-.544 1.173-1.094 1.765-1.643.433-.424.86-.85 1.255-1.282.044-.012.088-.018.133-.027.607-.666 2.076-2.65 2.915-2.815.858-.172 3.694 1.052 4.525 1.292M25.03-11.914c.383-.383 1.614-2.007 2.29-2.148.702-.148 3.138.804 3.787.997-.763.68-1.526 1.364-2.268 2.052-.246.222-3.267-.765-3.809-.902m7.597 19.102c1.025-.938 2.069-1.867 3.052-2.844.535-.537 2.135-2.742 3.018-2.917.855-.171 3.694 1.055 4.524 1.287 1.52.434 3.058.806 4.597 1.19-1.051.957-2.022 1.937-3.02 2.924-.5.497-2.187 2.647-2.945 2.823-.782.18-3.807-.965-4.597-1.19-1.54-.44-3.063-.883-4.63-1.273M61.49 40.045c-1.03.937-2.049 1.887-3.052 2.844-.496.479-2.215 2.736-2.916 2.901-.72.17-3.85-1.055-4.626-1.268-1.528-.413-3.064-.808-4.597-1.19 1.002-.981 2.006-1.952 3.022-2.923.527-.515 2.232-2.69 3.047-2.847.785-.16 3.69.996 4.492 1.216 1.55.413 3.086.834 4.63 1.268M37.182-11.019c-.356.308-1.791 2.003-2.288 2.095-.586.107-3.191-.823-3.788-.97.727-.705 1.472-1.392 2.232-2.081.289-.248 3.318.802 3.844.956m1.52-3.09c-.357.307-1.789 1.996-2.29 2.088-.585.106-3.19-.82-3.787-.97.393-.379 1.688-1.994 2.398-2.109.688-.115 3.048.803 3.678.992m-10.633-.981c.758-.685 1.52-1.367 2.268-2.053.25-.224 3.269.756 3.809.9-.385.377-1.62 2.01-2.293 2.15-.698.144-3.137-.81-3.784-.997m47.206 3.077C77.77-5.814 80.265.378 82.757 6.572 77.188 4.37 71.621 2.172 66.05-.035c-.188-.071 8.433-10.947 9.225-11.977m6.414 20.746c1.67.706 4.928 1.951 3.915-.586L82.486.322l-5.785-14.515c-.957-2.398-3.11.573-3.726 1.371-1.722 2.26-3.555 4.481-5.204 6.766-.843 1.171-6.248 6.68-4.366 7.481 6.015 2.543 12.275 4.77 18.285 7.31M26.659-28.548c-.723.153-3.847-.962-4.622-1.15-1.532-.376-3.065-.733-4.602-1.083 1.047-.842 2.1-1.736 3.023-2.652l5.875-1.154c2.213-.435 4.17.218 6.294.826-1.036.852-2.05 1.708-3.05 2.582-.498.431-2.213 2.482-2.92 2.63M-5.352-5.344c4.108-5.32 8.234-10.637 12.342-15.96 3.939 1.552 7.87 3.11 11.808 4.66-1.94 2.512-3.883 5.018-5.825 7.527 3.513 1.387 7.031 2.774 10.54 4.162-2.18 2.814-4.438 5.587-6.531 8.43C9.54.534 2.09-2.402-5.352-5.345m24.488 8.38C20.56 1.182 21.987-.67 23.42-2.522c1.857-2.413 2.689-2.627-.758-3.995-2.466-.981-4.936-1.957-7.403-2.932 1.612-2.09 3.26-4.169 4.798-6.289 1.446-1.996-2.722-2.563-4.876-3.455-1.46-.604-2.949-1.166-4.44-1.725-.789-.299-2.92-1.576-3.767-1.401-1.698.351-3.847 4.407-4.76 5.59-1.766 2.287-3.529 4.576-5.295 6.865-.752.98-1.508 1.956-2.259 2.934-.509.654-1.015 1.315-1.526 1.966-.15.203 2.127.964 2.474 1.103C1.757-1.426 7.946.966 14.099 3.405c3.068 1.215 3.326 1.843 5.037-.37m-.98-8.219c.911.364 2.768.654 2.218 1.4-.497.67-1.086 1.294-1.618 1.95-.282.338-1.312 2.078-1.802 2.2-.584.15-3.445-1.243-4.057-1.465C8.296-2.764 3.804-4.561-.794-6.224c3.26-4.001 6.506-8.014 9.853-11.983 1.925.653 3.841 1.328 5.678 2.09 1.605.657.501 1.128-.303 2.178-.54.699-1.108 1.395-1.694 2.081-.597.685-1.215 1.362-1.759 2.067-1.052 1.372-1.512 1.343.474 2.131 2.198.872 4.499 1.603 6.7 2.476m25.648-27.479c9.437 3.553 18.88 7.106 28.32 10.658-5.216 6.43-10.438 12.855-15.65 19.285-5.784-2.253-11.615-4.451-17.485-6.583.994-1.229 1.925-2.483 2.927-3.712.422-.524 3.285-3.119 3.057-3.664-.23-.54-4.685-1.706-5.448-1.993-1.811-.68-3.58-1.405-5.378-2.082 3.304-3.936 6.431-7.939 9.657-11.908m-12.08 14.72c2.6 1.514 6.517 2.506 9.513 3.645-1.753 2.178-3.502 4.358-5.252 6.535-1.13 1.404 3.608 2.48 4.734 2.909 2.897 1.103 5.8 2.207 8.701 3.308 2.409.917 5.434 2.605 8.116 2.942 1.887.244 3.37-2.981 4.048-3.822 1.775-2.206 3.546-4.415 5.315-6.618.884-1.103 9.95-12.27 9.78-12.334-6.106-2.325-12.213-4.645-18.32-6.968l-9.457-3.6c-1.53-.584-4.27-2.33-6.087-1.556-1.927.828-3.451 4.124-4.584 5.504-1.719 2.077-3.362 4.183-5.039 6.273-.78.973-3.21 2.767-1.466 3.782M5.734-24.403l13.55 5.103c.502.186 4.021 1.353 3.852 1.579-.636.833-1.263 1.66-1.929 2.48-1.307 1.605-2.67 3.188-3.978 4.796 2.542.953 5.11 1.865 7.644 2.822.692.256 2.986.828 3.183 1.255.2.415-1.828 2.257-2.173 2.674-2.494 3.078-5.052 6.132-7.489 9.234C8.964 1.985-.474-1.567-9.909-5.12-4.695-11.546.522-17.975 5.732-24.4m7.67 30.257c1.532.58 4.277 2.328 6.088 1.554 1.904-.817 3.488-4.134 4.59-5.508 1.682-2.09 3.364-4.185 5.039-6.277 1.004-1.252 3.043-2.645 1.321-3.868-2.135-1.515-6.66-2.534-9.365-3.565 1.651-2.061 4.2-4.335 5.233-6.574.691-1.494-2.744-2.127-4.161-2.667-3.042-1.157-6.059-2.338-9.121-3.47-2.028-.751-5.866-2.986-8.135-2.98-2.132.006-3.104 2.491-3.956 3.547-1.736 2.17-3.478 4.341-5.221 6.516-3.397 4.224-6.788 8.452-10.18 12.68C-8.326-2.418-2.191-.08 3.95 2.253c3.154 1.202 6.303 2.4 9.453 3.604m31.824-35.421c7.444 2.943 14.892 5.88 22.339 8.822-4.12 5.319-8.238 10.639-12.348 15.957-3.888-1.612-7.823-3.164-11.802-4.656 1.935-2.512 3.881-5.02 5.817-7.528l-10.53-4.161c2.261-2.782 4.344-5.62 6.524-8.434m3.246 13.61c-1.358 1.706-2.72 3.41-4.073 5.12-1.869 2.35-1.116 2.226 2.206 3.5 2.295.882 4.593 1.761 6.894 2.648 3.619 1.384 3.403 1.398 5.396-1.103 3.356-4.204 6.762-8.39 10.112-12.598.267-.333 1.727-1.655 1.587-1.989-.12-.29-2.127-.816-2.528-.972-1.314-.501-2.629-1.005-3.942-1.51-3.157-1.21-6.311-2.424-9.468-3.634-1.663-.636-3.354-1.243-5.025-1.87-.875-.327-2.54-1.346-3.54-1.184-1.46.227-3.996 4.604-4.758 5.602-1.154 1.52-4.259 3.518-1.557 4.617 2.854 1.164 5.795 2.257 8.697 3.374" style="mix-blend-mode:lighten" mask="url(#prefix__b)" transform="rotate(5 37.183 59.229)"/>
        </g>
        <g transform="matrix(-1 0 0 1 110 74)">
            <mask id="prefix__d" fill="#fff">
                <use xlink:href="#prefix__c"/>
            </mask>
            <use fill="#89E97B" fill-rule="nonzero" xlink:href="#prefix__c"/>
            <path fill="#EF7D00" fill-rule="nonzero" d="M-20.543 112.937c.76-.684 1.517-1.365 2.27-2.051.249-.226 3.268.755 3.807.902-.385.374-1.621 2.007-2.29 2.147-.699.144-3.143-.807-3.787-.998m-4.557 3.177c.38-.383 1.614-2.01 2.286-2.148.7-.15 3.14.802 3.79.995-.764.68-1.523 1.366-2.271 2.054-.24.222-3.266-.764-3.805-.902m10.634-.136c-.357.304-1.79 2.001-2.288 2.095-.586.106-3.187-.823-3.79-.973.727-.703 1.474-1.392 2.233-2.079.288-.249 3.316.803 3.845.957m4.557-2.06c-.355.309-1.789 1.997-2.289 2.089-.586.107-3.19-.82-3.788-.97.397-.38 1.69-1.994 2.4-2.108.688-.115 3.049.803 3.677.99m-20.546 8.925c.912.364 2.767.654 2.216 1.4-.495.67-1.083 1.293-1.617 1.95-.281.34-1.312 2.076-1.802 2.2-.582.15-3.446-1.244-4.057-1.466-4.597-1.666-9.09-3.46-13.692-5.125 3.263-4 6.507-8.013 9.854-11.982 1.924.652 3.843 1.33 5.678 2.088 1.606.657.501 1.13-.3 2.18-.54.7-1.109 1.394-1.695 2.08-.598.686-1.215 1.364-1.76 2.067-1.053 1.375-1.513 1.342.473 2.133 2.198.87 4.5 1.603 6.702 2.475m-23.508-.16c4.11-5.323 8.234-10.64 12.34-15.96 3.935 1.552 7.87 3.11 11.808 4.659-1.94 2.512-3.883 5.018-5.824 7.529 3.512 1.387 7.029 2.77 10.539 4.16-2.18 2.815-4.436 5.585-6.53 8.431-7.442-2.941-14.89-5.879-22.333-8.82m24.485 7.348c1.426-1.853 2.854-3.705 4.29-5.56 1.852-2.412 2.687-2.625-.76-3.994-2.467-.981-4.936-1.954-7.404-2.93 1.612-2.093 3.26-4.172 4.798-6.29 1.446-1.997-2.722-2.562-4.877-3.457-1.458-.602-2.945-1.163-4.437-1.724-.79-.3-2.921-1.577-3.768-1.401-1.7.35-3.849 4.409-4.76 5.59l-5.295 6.864c-.754.981-1.51 1.956-2.259 2.934-.508.654-1.017 1.317-1.526 1.97-.152.2 2.126.962 2.472 1.1 6.152 2.44 12.34 4.83 18.491 7.269 3.07 1.213 3.328 1.842 5.036-.372m-13.4-26.404c4.523 1.7 9.033 3.4 13.548 5.101.504.187 4.023 1.357 3.854 1.581-.634.83-1.263 1.66-1.93 2.48-1.306 1.604-2.67 3.186-3.977 4.794 2.542.954 5.111 1.866 7.646 2.823.69.254 2.982.83 3.179 1.253.2.418-1.826 2.258-2.173 2.676-2.496 3.079-5.05 6.132-7.487 9.235-9.43-3.557-18.867-7.108-28.304-10.66 5.218-6.43 10.434-12.857 15.643-19.282m7.67 30.256c1.532.583 4.278 2.331 6.088 1.556 1.902-.819 3.486-4.134 4.587-5.506 1.679-2.092 3.363-4.186 5.04-6.278 1.005-1.251 3.044-2.646 1.32-3.87-2.135-1.515-6.66-2.533-9.363-3.564 1.651-2.061 4.198-4.335 5.23-6.574.692-1.496-2.744-2.126-4.16-2.665-3.041-1.16-6.056-2.341-9.117-3.472-2.03-.752-5.87-2.985-8.14-2.981-2.13.006-3.103 2.494-3.953 3.548-1.739 2.17-3.479 4.338-5.221 6.515-3.398 4.223-6.788 8.452-10.182 12.68 6.14 2.339 12.278 4.677 18.416 7.008 3.158 1.204 6.307 2.402 9.454 3.603m58.72-27.859c-5.214 6.428-10.439 12.855-15.649 19.284-5.78-2.252-11.613-4.45-17.484-6.582.994-1.23 1.925-2.483 2.927-3.714.423-.522 3.285-3.117 3.055-3.66-.228-.54-4.681-1.707-5.449-1.998-1.807-.676-3.577-1.402-5.377-2.082 3.306-3.936 6.437-7.939 9.66-11.905 9.438 3.551 18.88 7.103 28.317 10.657M-5.8 93.496c-1.925.825-3.447 4.124-4.584 5.502-1.72 2.078-3.358 4.18-5.04 6.271-.78.974-3.205 2.77-1.464 3.782 2.601 1.516 6.517 2.507 9.51 3.646-1.752 2.18-3.5 4.36-5.247 6.534-1.136 1.405 3.603 2.48 4.732 2.91l8.7 3.31c2.412.915 5.433 2.602 8.115 2.94 1.887.242 3.373-2.98 4.051-3.823l5.313-6.617c.886-1.103 9.952-12.27 9.782-12.336-6.107-2.323-12.216-4.644-18.322-6.965-3.154-1.203-6.304-2.402-9.456-3.6-1.53-.58-4.275-2.332-6.09-1.554m32.86 27.682l4.048 10.324-9.114-3.705c1.755-2.18 3.315-4.438 5.066-6.619m-2.271 8.012c1.486.6 4.296 2.257 6.01 2.311 1.276.04-1.787-6.554-2.157-7.464l-1.91-4.744c-.764-1.898-1.3-1.342-2.496.115-1.036 1.274-6.187 6.314-5.142 7.532 1.898.748 3.81 1.482 5.695 2.25m1.762-1.818c-1.533-.492-3.007-1.045-4.557-1.514.835-.87 1.666-1.745 2.501-2.616l2.056 4.13m-6.076-19.056c-4.123 5.32-8.239 10.64-12.351 15.959-3.887-1.613-7.82-3.167-11.801-4.658 1.934-2.51 3.882-5.018 5.82-7.527l-10.532-4.16c2.259-2.783 4.343-5.62 6.522-8.435 7.443 2.943 14.89 5.878 22.342 8.82m-27.752-4.231c-1.154 1.522-4.256 3.516-1.558 4.616 2.856 1.165 5.793 2.257 8.7 3.372-1.358 1.706-2.72 3.412-4.074 5.12-1.871 2.351-1.118 2.225 2.202 3.498l6.896 2.65c3.62 1.387 3.401 1.396 5.396-1.102 3.357-4.202 6.76-8.39 10.112-12.597.266-.334 1.726-1.656 1.587-1.99-.122-.29-2.128-.815-2.527-.97-1.317-.503-2.63-1.008-3.942-1.511l-9.468-3.634c-1.667-.637-3.353-1.243-5.029-1.87-.87-.33-2.536-1.346-3.536-1.186-1.46.228-3.998 4.605-4.759 5.604m3.764 1.292c1.037-1.277 1.999-2.568 3.111-3.815 5.988 2.16 11.906 4.395 17.838 6.616-2.546 3.015-4.897 6.102-7.446 9.119-.8.947-1.6 1.892-2.4 2.836-.113.135-2.502-.844-2.893-.99l-3.31-1.237c-1.12-.42.245-1.328.75-1.987 1.18-1.538 2.562-2.991 3.747-4.528 1.066-1.39.701-1.196-1.28-1.983-1.019-.4-2.077-.753-3.124-1.12-1.04-.37-2.07-.756-3.083-1.154-1.556-.618-2.85-.603-1.91-1.757m2.72 26.555c-1.053.956-2.023 1.938-3.018 2.924-.5.496-2.19 2.644-2.947 2.823-.782.178-3.807-.965-4.596-1.194-1.544-.437-3.061-.88-4.63-1.268 1.027-.94 2.069-1.869 3.051-2.842.54-.539 2.136-2.743 3.017-2.92.857-.17 3.697 1.054 4.525 1.29 1.523.433 3.059.804 4.598 1.186m34.94 1.637c-5.57-2.198-11.138-4.398-16.707-6.606-.188-.072 8.436-10.946 9.225-11.979 2.497 6.202 4.988 12.395 7.482 18.585m-9.78-18.362c-1.727 2.26-3.559 4.481-5.209 6.766-.842 1.17-6.248 6.68-4.365 7.481 6.015 2.545 12.277 4.775 18.287 7.31 1.67.706 4.924 1.951 3.914-.587-1.036-2.605-2.077-5.212-3.12-7.823-1.925-4.837-3.857-9.678-5.786-14.517-.952-2.398-3.107.573-3.722 1.37m-10.3-29.89c.15.372.298.745.45 1.117.24.59.477 1.184.715 1.778.048.113.095.229.14.342l1.138 2.819c.812 2.019 1.631 4.037 2.447 6.06-3.42-1.35-6.82-2.714-10.26-4.024-1.788-.681-3.565-1.373-5.342-2.075-.23-.09-.464-.18-.694-.273-.233-.092-.357-.186-.41-.282-.035-.13.102-.318.369-.69.117-.12.24-.245.35-.385.968-1.253 1.942-2.51 2.909-3.763 1.838-2.368 3.738-4.717 5.575-7.093l2.613 6.47m-3.385-9.522c-1.569-.37-2.375 1.585-2.936 2.313-2.451 3.2-4.905 6.4-7.357 9.606-.74.958-3.422 3.255-2.515 4.35.558.67 1.424.902 2.359.932.228.094.446.185.712.29 2.876 1.148 5.76 2.293 8.64 3.443 2.952 1.175 5.898 2.352 8.849 3.528 2.46.978 2.198-.909 1.745-2.039-.36-.897-2.525-6.65-3.961-9.911-1.15-2.88-2.3-5.76-3.455-8.643-.356-.898-.717-3.55-2.081-3.868m-30.467-6.388c-1.697-.676-.115-1.583.657-2.624.6-.816 1.37-1.594 2.021-2.392 1.575.57 17.951 6.572 17.833 6.715-1.686 2.07-3.37 4.138-5.052 6.21-.839 1.03-1.664 2.072-2.525 3.093-.604.715-1.686 2.966-2.91 2.505-1.425-.53-2.872-1.02-4.266-1.594-2.267-.933-1.793-.852-.538-2.483.441-.571 4.881-5.592 4.478-5.753-3.2-1.273-6.506-2.408-9.698-3.677m8.359-35.594c-4.12 5.374-8.23 10.75-12.349 16.123-3.889-1.627-7.821-3.199-11.803-4.71 1.942-2.533 3.881-5.068 5.823-7.6l-10.534-4.207c1.701-2.114 3.302-4.26 4.908-6.412 1.045-1.402.951-2.37 3.01-1.547 1.395.552 2.793 1.113 4.189 1.666 5.586 2.23 11.172 4.46 16.756 6.687m-17.938-8.486c-.86-.33-2.535-1.344-3.538-1.187-1.46.234-3.997 4.603-4.755 5.606-1.155 1.522-4.26 3.515-1.557 4.615 2.856 1.17 5.79 2.26 8.698 3.374-1.36 1.705-2.721 3.413-4.074 5.119-1.873 2.352-1.119 2.225 2.203 3.498 2.294.883 4.598 1.767 6.894 2.644 3.621 1.39 3.404 1.407 5.397-1.096 3.352-4.206 6.762-8.387 10.112-12.595.267-.334 1.723-1.66 1.587-1.992-.12-.29-2.13-.816-2.528-.97-1.314-.502-2.628-1.005-3.942-1.51-3.148-1.208-6.275-2.455-9.459-3.615-1.692-.616-3.364-1.25-5.038-1.891m-4.958 5.32c.606-.82 1.325-1.608 2.023-2.393 1.572.572 17.944 6.571 17.835 6.716-1.69 2.07-3.375 4.135-5.06 6.203-.835 1.034-1.657 2.076-2.522 3.098-.602.716-1.683 2.964-2.905 2.507l-4.436-1.664c-2.254-.848-1.48-1.015-.29-2.52.702-.885 5.115-5.362 4.015-5.8-3.071-1.22-6.254-2.303-9.316-3.525-1.693-.668-.114-1.578.656-2.622m19.81 32.62c5.588 2.225 11.17 4.455 16.758 6.683-4.122 5.373-8.233 10.746-12.349 16.123-3.891-1.63-7.824-3.197-11.803-4.713 1.939-2.533 3.878-5.068 5.82-7.599-3.51-1.405-7.021-2.8-10.531-4.206 1.699-2.114 3.3-4.259 4.906-6.411 1.048-1.399.953-2.37 3.01-1.55 1.395.555 2.795 1.114 4.19 1.673m-9.473 3.65c-1.156 1.522-4.26 3.515-1.558 4.614 2.855 1.168 5.794 2.257 8.698 3.373-1.353 1.702-2.79 3.397-4.072 5.124-.414.552-1.588 1.485-1.212 2.129.326.56 2.679 1.085 3.413 1.366 2.295.885 4.598 1.764 6.896 2.644 3.618 1.39 3.408 1.402 5.393-1.097 3.352-4.206 6.762-8.39 10.113-12.596.266-.336 1.726-1.657 1.588-1.99-.12-.29-2.13-.816-2.529-.972-1.313-.502-2.627-1.003-3.94-1.51-3.152-1.208-6.274-2.451-9.461-3.616-1.691-.615-3.363-1.247-5.034-1.89-.863-.331-2.545-1.341-3.54-1.187-1.46.237-3.997 4.606-4.755 5.608M-5.811 89.17c-5.779-2.253-11.612-4.448-17.482-6.586.996-1.229 1.925-2.48 2.928-3.71.422-.522 3.286-3.12 3.054-3.662-.228-.54-4.679-1.705-5.446-1.991-1.81-.683-3.578-1.41-5.382-2.088 3.304-3.936 6.443-7.938 9.663-11.905C-9.036 62.78.402 66.33 9.839 69.884L-5.81 89.172m14.557-21.22C7.189 67.36 5.632 66.77 4.08 66.17c-3.196-1.215-6.394-2.437-9.595-3.656l-9.43-3.6c-1.53-.583-4.265-2.33-6.076-1.556-1.92.828-3.438 4.125-4.574 5.503-1.713 2.079-3.35 4.189-5.025 6.28-.78.976-3.2 2.772-1.461 3.786 2.594 1.518 6.5 2.507 9.488 3.647-1.659 2.065-4.187 4.338-5.223 6.573-.698 1.493 2.749 2.133 4.154 2.669 3.03 1.156 6.065 2.312 9.093 3.47 1.985.758 5.88 2.99 8.116 2.982 2.134-.008 3.103-2.495 3.945-3.55 1.736-2.171 3.475-4.339 5.213-6.51C4.474 80 6.238 77.793 8.01 75.584c.812-1.012 1.62-2.025 2.434-3.04.467-.583 2.643-2.486 2.419-3.022-.2-.479-3.39-1.292-4.115-1.57m1.618 16.057l1.48 3.41c.047.313.186.69.363 1.075.166.564.393 1.18.772 1.546l1.417 3.26c-3.072-1.053-6.036-2.233-9.114-3.288 1.757-1.98 3.32-4.028 5.082-6.003m-4.99 4.09c-.45.507-1.304 1.176-1.478 1.79-.006.01-.014.017-.02.027-.212.238-.103.422.125.572.012.012.014.029.025.045.538.62 4.398 1.533 5.424 1.89 1.518.532 7.5 3.45 6.309.836-.364-.804-1.557-4.264-2.617-5.74l-1.241-2.722c-1.12-2.457-1.389-2.346-3.394-.17-1.053 1.136-2.051 2.295-3.05 3.455l-.083.016M-22.522 52c-5.78-2.267-11.611-4.475-17.482-6.623.993-1.234 1.923-2.495 2.927-3.732.42-.525 3.284-3.136 3.055-3.68-.229-.545-4.682-1.713-5.45-2.009-1.807-.682-3.575-1.407-5.377-2.091 2.175-2.605 4.233-5.256 6.36-7.88 1.029-1.282 2.06-2.555 3.095-3.837.406-.504 4.225 1.256 5.24 1.624 7.84 2.841 15.52 5.9 23.284 8.839C-12.086 39.074-17.306 45.533-22.522 52m18.673-20.68c-.201-.484-3.39-1.294-4.116-1.57-1.558-.592-3.111-1.188-4.663-1.78-3.2-1.217-6.395-2.44-9.593-3.66-3.143-1.197-6.288-2.399-9.43-3.597-1.533-.582-4.266-2.335-6.077-1.556-1.922.824-3.437 4.128-4.573 5.502-1.717 2.078-3.35 4.186-5.024 6.28-.78.968-3.208 2.772-1.466 3.784 2.61 1.516 6.5 2.508 9.49 3.65-1.748 2.178-3.495 4.356-5.238 6.536-1.084 1.356 3.099 2.292 4.168 2.703 3.032 1.156 6.064 2.315 9.098 3.473 1.98.751 5.877 2.986 8.114 2.98 2.13-.007 3.094-2.494 3.941-3.553 1.743-2.166 3.474-4.339 5.212-6.51 1.773-2.208 3.538-4.416 5.307-6.62.81-1.016 1.617-2.029 2.431-3.045.465-.58 2.643-2.477 2.42-3.016m15.713 59.6c-1.18-.135-2.601-.811-3.512-1.094-.05-.017-.039-.086.011-.177.094-.521 1.572-1.799 1.877-2.111.025-.006.046.011.068.008.209-.2.382-.37.453-.441l.509 1c.749.904 1.347 2.618 1.607 3.13l-1.014-.315M-3.832 55.098l-4.556-1.445c.885-.878 1.636-1.8 2.487-2.684.69 1.378 1.378 2.753 2.07 4.13m-1.022-8.26c1.351 3.445 2.704 6.883 4.06 10.325-3.074-1.161-6.04-2.467-9.115-3.624 1.686-2.238 3.37-4.47 5.055-6.701M.2 59.206c1.327.31-.26-2.758-.41-3.135-.624-1.578-1.252-3.157-1.878-4.73-.574-1.453-1.147-2.898-1.723-4.347-.732-1.849-1.287-1.328-2.452.117-1.018 1.274-6.059 6.404-5.027 7.584 3.625 1.45 7.544 3.592 11.49 4.511m2.044 2.087c-5.56-2.206-11.155-4.368-16.71-6.569 3.084-4.007 6.164-8.012 9.25-12.016 2.488 6.195 4.97 12.387 7.46 18.585M-6 40.923c-1.72 2.248-3.509 4.474-5.228 6.723-.928 1.212-6.247 6.606-4.351 7.529l18.298 7.302c1.71.688 4.894 1.859 3.893-.651-1.033-2.585-2.064-5.174-3.098-7.762-1.937-4.86-3.878-9.723-5.815-14.585-.967-2.425-3.164.744-3.7 1.443m-16.102 52.655c.305.086.617.156.922.236 1.226.176 2.426.558 3.678.952-.9 1.022-2.059 1.928-3.022 2.92l-.122.03c-.583.61-2.153 2.641-2.823 2.797-.725.169-3.85-1.062-4.626-1.27-.376-.101-.758-.194-1.134-.293-1.132-.203-2.248-.575-3.465-.899.593-.543 1.176-1.095 1.765-1.644.433-.421.861-.848 1.256-1.28l.13-.028c.607-.662 2.077-2.648 2.916-2.814.86-.172 3.699 1.055 4.525 1.293m95.747 1.808c.763-.684 1.52-1.365 2.27-2.051.25-.226 3.268.755 3.807.9-.383.375-1.62 2.008-2.286 2.15-.703.142-3.144-.808-3.792-1m-5.52 26.826c4.618 1.744 9.237 3.488 13.857 5.226.447.17 3.61 1.205 3.442 1.43-.638.831-1.266 1.657-1.928 2.48-1.309 1.613-2.673 3.192-3.982 4.803 2.542.953 5.11 1.863 7.647 2.823.691.262 2.982.83 3.182 1.255.197.419-1.83 2.26-2.172 2.683-2.494 3.079-5.057 6.132-7.49 9.242-9.436-3.56-18.868-7.115-28.303-10.67 1.37-1.696 15.443-19.384 15.747-19.27m19.637 26.944c1.673-2.141 3.344-4.283 5.019-6.418.594-.76 3.407-3.136 1.449-3.902-3.155-1.232-6.309-2.461-9.462-3.691 1.648-2.11 4.17-4.429 5.214-6.719.7-1.526-2.745-2.171-4.15-2.723-3.03-1.184-6.039-2.394-9.088-3.547-2.02-.765-5.85-3.05-8.111-3.045-2.132.005-3.088 2.549-3.94 3.626-1.733 2.22-3.473 4.431-5.208 6.652-3.38 4.319-6.759 8.639-10.145 12.96 6.122 2.386 12.237 4.774 18.355 7.16 3.144 1.223 6.285 2.456 9.42 3.676m3.254-12.706c2.076.792 3.09.726 1.856 2.22-.74.901-1.555 1.78-2.303 2.69-1.072 1.3-2.614.046-4.336-.568-1.657-.594-3.277-1.24-4.908-1.867-3.015-1.156-6.124-2.214-9.156-3.344-.608-.222 8.662-11.005 9.714-12.238 1.236.416 2.446.846 3.653 1.293 1.517.566 3.554.796 2.637 1.99-1.672 2.146-3.536 4.212-5.204 6.357-.592.776 6.747 2.972 8.047 3.467M49.2 132.534c-2.486-6.19-4.968-12.384-7.458-18.584 5.56 2.208 11.153 4.369 16.71 6.572-3.083 4.006-6.164 8.011-9.252 12.012m3.084-16.961c-3.047-1.303-6.21-2.482-9.312-3.732-1.065-.431-5.074-2.135-4.123.27l5.736 14.543c1.031 2.616 2.062 5.226 3.09 7.839 1.004 2.541 2.843.212 3.717-1.014 3.193-4.465 6.823-8.768 10.015-13.242 1.019-1.432-7.582-4.003-9.123-4.664m19.84-17.01c.378-.384 1.613-2.009 2.285-2.148.702-.15 3.14.803 3.791.997-.767.68-1.523 1.362-2.272 2.052-.239.224-3.265-.764-3.803-.902m-25.826 19.519c3.072 1.165 6.037 2.467 9.114 3.627-1.684 2.236-3.368 4.465-5.057 6.698-1.35-3.441-2.704-6.884-4.057-10.325m4.363 11.245c1.31-.663 2.437-3.194 3.188-4.217 1.01-1.368 2.058-2.716 3.082-4.073-.021-1.428-7.92-3.703-9.7-4.422-2.008-.81-2.946-1.033-2.195.865.622 1.577 1.243 3.157 1.867 4.735.625 1.584 1.249 3.162 1.87 4.744.232.582.57 3.028 1.888 2.368m30.576-31.933c-.353.308-1.792 2.004-2.29 2.095-.587.107-3.188-.823-3.786-.972.727-.704 1.47-1.39 2.234-2.08.285-.247 3.316.805 3.842.958m3.038-2.061c-.354.309-1.788 1.997-2.285 2.09-.588.109-3.19-.818-3.79-.97.392-.382 1.687-1.996 2.399-2.109.689-.116 3.049.803 3.676.989m-34.94 24.814c1.506.484 2.993 1.01 4.558 1.424-.996.839-1.687 1.814-2.537 2.706-.677-1.38-1.347-2.755-2.02-4.13M63.73 104.26c.912.362 2.767.652 2.216 1.398-.494.67-1.085 1.293-1.617 1.95-.281.34-1.312 2.078-1.803 2.2-.58.15-3.444-1.245-4.058-1.465-4.597-1.667-9.091-3.462-13.689-5.126 3.262-4 6.503-8.013 9.851-11.982 1.925.654 3.843 1.33 5.679 2.09 1.606.654.503 1.127-.3 2.178-.542.7-1.109 1.396-1.696 2.08-.594.686-1.215 1.364-1.76 2.069-1.053 1.373-1.513 1.341.474 2.13 2.199.871 4.501 1.602 6.703 2.478m-21.99-.162c4.112-5.323 8.232-10.64 12.344-15.96 3.938 1.554 7.87 3.11 11.807 4.66-1.939 2.511-3.883 5.019-5.824 7.529 3.511 1.387 7.03 2.77 10.537 4.16-2.18 2.812-4.434 5.585-6.528 8.43-7.44-2.941-14.892-5.879-22.335-8.82m24.486 8.379c1.426-1.85 2.854-3.703 4.285-5.556 1.857-2.413 2.691-2.627-.755-3.996-2.467-.981-4.936-1.954-7.405-2.932 1.614-2.09 3.26-4.17 4.799-6.289 1.446-1.995-2.72-2.563-4.874-3.454-1.461-.603-2.95-1.165-4.44-1.726-.789-.3-2.922-1.576-3.77-1.401-1.698.35-3.846 4.409-4.757 5.59-1.766 2.286-3.53 4.577-5.298 6.866-.752.979-1.51 1.954-2.258 2.932-.509.656-1.018 1.317-1.526 1.97-.152.202 2.125.962 2.474 1.1 6.149 2.44 12.336 4.829 18.49 7.269 3.067 1.213 3.328 1.842 5.035-.372M52.822 85.04c4.525 1.703 9.035 3.402 13.552 5.104.502.187 4.02 1.353 3.852 1.578-.633.834-1.264 1.662-1.93 2.481-1.307 1.605-2.669 3.187-3.977 4.796 2.542.951 5.113 1.866 7.645 2.822.689.257 2.984.83 3.183 1.255.197.417-1.828 2.255-2.175 2.675-2.493 3.078-5.052 6.13-7.487 9.231-9.43-3.555-18.87-7.105-28.303-10.656 5.216-6.429 10.432-12.859 15.641-19.286m7.673 31.29c1.535.583 4.28 2.33 6.088 1.555 1.904-.816 3.488-4.133 4.59-5.504 1.677-2.093 3.362-4.188 5.038-6.28 1.003-1.251 3.04-2.646 1.32-3.87-2.138-1.515-6.661-2.532-9.364-3.563 1.653-2.063 4.2-4.336 5.232-6.576.693-1.495-2.747-2.124-4.162-2.664-3.04-1.16-6.055-2.34-9.117-3.471-2.028-.752-5.869-2.988-8.138-2.981-2.131.005-3.104 2.492-3.953 3.548-1.74 2.17-3.48 4.337-5.222 6.514-3.4 4.223-6.788 8.454-10.183 12.682 6.141 2.337 12.28 4.677 18.417 7.007 3.157 1.203 6.307 2.402 9.454 3.604m-3.565 24.866c3.083-4.023 6.176-8.042 9.259-12.065l2.314-3.013c1.139-1.482 1.776-.631 3.69.155 2.95 1.202 5.923 2.356 8.888 3.536l-5.826 7.589c3.515 1.392 7.025 2.793 10.538 4.185-2.175 2.835-4.43 5.636-6.53 8.502-7.44-2.962-14.888-5.928-22.333-8.889m24.487 8.45c1.429-1.852 2.853-3.707 4.284-5.56 1.858-2.41 2.691-2.625-.757-3.995-2.464-.978-4.935-1.955-7.403-2.928 1.612-2.092 3.265-4.17 4.798-6.292 1.444-1.996-2.722-2.56-4.874-3.451-1.461-.61-2.946-1.162-4.442-1.726-.789-.3-2.913-1.58-3.77-1.403-1.75.36-3.776 4.429-4.743 5.626-1.822 2.254-3.553 4.548-5.307 6.831-.754.973-1.509 1.955-2.262 2.93-.506.658-1.018 1.312-1.522 1.972-.154.2 2.121.956 2.47 1.096 6.15 2.442 12.338 4.83 18.493 7.273 3.064 1.206 3.324 1.844 5.035-.374m37.336-5.754c-5.78-2.268-11.614-4.474-17.486-6.622.998-1.237 1.928-2.496 2.93-3.732.422-.528 3.286-3.137 3.058-3.68-.232-.548-4.683-1.715-5.45-2.008-1.81-.68-3.578-1.408-5.378-2.093 2.175-2.604 4.233-5.254 6.36-7.88 1.024-1.281 2.06-2.555 3.094-3.839.407-.5 4.225 1.259 5.24 1.625 7.838 2.842 15.52 5.9 23.285 8.84-5.216 6.462-10.435 12.922-15.653 19.39m3.304-.59c1.742-2.229 3.476-4.466 5.213-6.695 1.77-2.273 3.536-4.542 5.307-6.808.81-1.046 1.615-2.087 2.43-3.133.468-.597 2.646-2.548 2.42-3.1-.204-.5-3.39-1.333-4.116-1.62-1.557-.606-3.111-1.22-4.665-1.829-3.2-1.251-6.392-2.51-9.594-3.764-3.143-1.229-6.286-2.466-9.43-3.698-1.529-.598-4.263-2.402-6.07-1.602-1.925.85-3.443 4.247-4.576 5.66-1.718 2.135-3.353 4.304-5.026 6.459-.78.996-3.207 2.85-1.462 3.89 2.608 1.557 6.498 2.582 9.489 3.754-1.75 2.24-3.497 4.479-5.24 6.723-1.081 1.391 3.099 2.355 4.169 2.778 3.032 1.188 6.066 2.381 9.096 3.574m-4.567-21.356c.608-.82 1.323-1.61 2.023-2.39 1.57.568 17.944 6.566 17.832 6.714-1.688 2.068-3.374 4.134-5.056 6.205-.836 1.034-1.656 2.075-2.525 3.1-.6.713-1.686 2.962-2.904 2.503-1.484-.557-2.959-1.107-4.435-1.664-2.254-.846-1.48-1.015-.294-2.52.706-.882 5.12-5.36 4.016-5.8-3.068-1.224-6.253-2.304-9.316-3.528-1.694-.666-.11-1.578.66-2.619m24.412 3.167c-4.12 5.372-8.233 10.749-12.345 16.123-3.895-1.63-7.829-3.198-11.806-4.714l5.82-7.597c-3.509-1.402-7.021-2.806-10.532-4.205 1.699-2.116 3.3-4.26 4.906-6.413 1.048-1.405.953-2.37 3.011-1.548 1.394.554 2.792 1.112 4.191 1.669l16.755 6.685m-19.456-7.453c-.862-.33-2.538-1.344-3.538-1.187-1.46.236-4 4.606-4.758 5.606-1.152 1.52-4.257 3.515-1.557 4.615 2.857 1.168 5.796 2.261 8.698 3.375-1.357 1.705-2.72 3.41-4.074 5.116-1.872 2.353-1.116 2.228 2.204 3.501 2.295.882 4.595 1.766 6.896 2.642 3.62 1.392 3.401 1.405 5.397-1.096 3.347-4.207 6.758-8.384 10.11-12.595.267-.333 1.722-1.658 1.588-1.99-.122-.29-2.13-.817-2.528-.971-1.316-.502-2.631-1.004-3.94-1.51-3.154-1.208-6.278-2.452-9.462-3.614-1.693-.613-3.363-1.25-5.036-1.892M44.767 83.623c-.166.216-.322.437-.483.654-.074.077-.147.149-.214.236-1.025 1.319-2.061 2.632-3.112 3.942-1.832 2.284-3.595 4.605-5.38 6.91-.874-2.157-1.74-4.308-2.615-6.467l-.45-1.119c-.24-.59-.48-1.184-.718-1.777-.048-.113-.09-.228-.138-.34-.38-.94-.758-1.88-1.14-2.82l-2.448-6.061c5.446 2.148 10.92 4.253 16.365 6.396.3.147.376.293.333.447m-.825-2.405c-.34-.107-.644-.204-.85-.291-2.851-1.198-5.748-2.386-8.679-3.484-2.981-1.117-5.905-2.314-8.846-3.481-2.487-.99-2.214.874-1.748 2.04.36.898 2.524 6.634 3.965 9.895 1.152 2.884 2.305 5.767 3.46 8.648.348.873.698 3.558 2.088 3.873 1.605.364 2.408-1.625 2.939-2.312 2.46-3.21 5.093-6.373 7.45-9.62.684-.944 2.958-2.94 2.52-4.108-.003-.004 0-.011 0-.018l-.014-.015c-.025-.064-.025-.136-.07-.192-.5-.649-1.315-.888-2.215-.936m73.753 7.253c-5.216 6.428-10.438 12.855-15.65 19.284-5.78-2.251-11.612-4.449-17.483-6.584.995-1.229 1.927-2.481 2.927-3.71.425-.524 3.287-3.12 3.054-3.663-.227-.541-4.678-1.706-5.447-1.996-1.808-.678-3.576-1.402-5.377-2.083 3.304-3.936 6.434-7.937 9.658-11.905l28.32 10.656M88.385 75.944c-1.924.825-3.45 4.125-4.585 5.5-1.718 2.079-3.357 4.184-5.038 6.275-.78.972-3.208 2.767-1.467 3.781 2.601 1.515 6.519 2.506 9.513 3.646-1.753 2.18-3.5 4.359-5.25 6.533-1.135 1.407 3.603 2.48 4.732 2.911 2.9 1.104 5.797 2.206 8.7 3.309 2.413.916 5.435 2.603 8.118 2.94 1.886.243 3.37-2.98 4.048-3.822l5.316-6.616c.886-1.104 9.952-12.271 9.778-12.337-6.104-2.325-12.212-4.643-18.32-6.966-3.154-1.204-6.303-2.402-9.456-3.6-1.531-.582-4.273-2.333-6.089-1.553m26.274 13.786c-4.124 5.32-8.238 10.639-12.351 15.959-3.888-1.613-7.82-3.167-11.799-4.658 1.932-2.51 3.878-5.02 5.818-7.528-3.51-1.388-7.023-2.774-10.533-4.16 2.26-2.783 4.342-5.62 6.52-8.433 7.446 2.94 14.897 5.877 22.345 8.82m-27.752-3.2c-1.156 1.522-4.26 3.518-1.556 4.615 2.853 1.167 5.793 2.26 8.697 3.373-1.356 1.707-2.72 3.41-4.073 5.122-1.871 2.35-1.118 2.224 2.204 3.498 2.292.883 4.595 1.763 6.894 2.648 3.62 1.387 3.403 1.398 5.395-1.102 3.355-4.204 6.762-8.39 10.111-12.596.267-.335 1.725-1.656 1.589-1.99-.12-.291-2.13-.816-2.528-.971-1.315-.502-2.629-1.008-3.94-1.51l-9.47-3.635c-1.663-.636-3.349-1.244-5.024-1.869-.874-.33-2.54-1.348-3.539-1.186-1.46.228-3.998 4.604-4.759 5.603m3.763 1.293c1.037-1.278 1.999-2.567 3.114-3.815 5.987 2.16 11.904 4.396 17.835 6.616-2.547 3.015-4.897 6.102-7.444 9.118-.8.947-1.598 1.892-2.4 2.837-.115.135-2.506-.844-2.894-.99-1.101-.416-2.205-.827-3.308-1.237-1.123-.42.245-1.33.747-1.987 1.18-1.537 2.562-2.995 3.749-4.53 1.064-1.389.702-1.194-1.28-1.98-1.02-.402-2.079-.756-3.124-1.123-1.04-.367-2.07-.755-3.08-1.153-1.559-.62-2.855-.602-1.915-1.756m2.084 46.786c.681-.116 3.039.803 3.674.989-.352.308-1.79 1.998-2.286 2.09-.586.109-3.188-.82-3.79-.97.39-.383 1.691-1.995 2.403-2.109m.636-21.264c-1.053.954-2.024 1.938-3.02 2.924-.498.497-2.187 2.645-2.946 2.823-.782.178-3.808-.966-4.596-1.192-1.543-.436-3.063-.88-4.63-1.271 1.027-.939 2.07-1.867 3.05-2.842.537-.538 2.138-2.743 3.018-2.92.858-.17 3.697 1.055 4.525 1.29 1.52.431 3.058.806 4.599 1.188m7.596 18.125c-.384.366-1.614 1.943-2.294 2.081-.698.144-3.138-.78-3.784-.964.392-.38 1.69-1.996 2.398-2.11.69-.105 3.051.81 3.679.993m-15.192 3.165c.383-.366 1.615-1.942 2.284-2.086.705-.144 3.143.782 3.792.97-.391.377-1.687 1.985-2.403 2.103-.683.111-3.045-.807-3.673-.987m4.558-3.114c.76-.683 1.518-1.37 2.267-2.053.25-.223 3.27.757 3.809.9-.387.377-1.617 2.01-2.291 2.15-.698.15-3.14-.803-3.785-.997M33.273 31.036c2.078.791 3.09.725 1.857 2.221-.74.902-1.555 1.782-2.3 2.688-1.074 1.301-2.618.048-4.337-.568-1.66-.594-3.28-1.24-4.909-1.864-3.013-1.158-6.125-2.216-9.159-3.346-.603-.223 8.666-11.005 9.716-12.237 1.234.412 2.446.845 3.651 1.293 1.52.565 3.557.795 2.635 1.987-1.666 2.148-3.535 4.215-5.196 6.36-.598.774 6.742 2.97 8.041 3.466m-21.914-.313c3.082-4.025 6.174-8.046 9.26-12.067l2.316-3.01c1.136-1.485 1.772-.633 3.69.153 2.948 1.202 5.92 2.356 8.887 3.536-1.944 2.525-3.883 5.058-5.826 7.588 3.513 1.394 7.026 2.791 10.537 4.188-2.176 2.834-4.428 5.635-6.528 8.5l-22.336-8.888m24.486 8.446c1.43-1.85 2.855-3.703 4.288-5.56 1.855-2.405 2.689-2.623-.758-3.99-2.465-.98-4.935-1.954-7.402-2.93 1.609-2.09 3.264-4.172 4.797-6.29 1.443-1.996-2.722-2.56-4.878-3.453-1.459-.608-2.944-1.163-4.438-1.725-.79-.302-2.912-1.58-3.769-1.405-1.754.363-3.776 4.43-4.745 5.626-1.821 2.255-3.554 4.548-5.307 6.832-.757.974-1.512 1.954-2.26 2.932-.507.656-1.02 1.312-1.526 1.97-.153.199 2.125.956 2.471 1.095 6.152 2.443 12.339 4.832 18.492 7.271 3.068 1.211 3.327 1.846 5.034-.373M3.624 22.059C1.143 15.867-1.343 9.675-3.832 3.474c5.561 2.21 11.153 4.372 16.71 6.573-3.082 4.007-6.165 8.009-9.253 12.012M6.706 6.13C3.66 4.826.5 3.649-2.603 2.396c-1.066-.428-5.072-2.132-4.124.27C-4.813 7.515-2.9 12.365-.99 17.212l3.093 7.837c1.003 2.543 2.845.214 3.714-1.009 3.194-4.468 6.825-8.77 10.017-13.245C16.85 9.362 8.25 6.791 6.707 6.131m15.84 6.637c4.616 1.743 9.24 3.484 13.855 5.224.45.171 3.612 1.206 3.446 1.432-.637.83-1.269 1.657-1.933 2.48-1.306 1.612-2.669 3.193-3.979 4.803 2.542.952 5.113 1.861 7.649 2.82.689.264 2.981.834 3.18 1.258.197.418-1.828 2.259-2.172 2.684-2.49 3.078-5.057 6.134-7.487 9.24L6.802 32.038C8.17 30.343 22.24 12.656 22.548 12.768M30.02 43.02c1.534.583 4.266 2.334 6.071 1.558 1.9-.817 3.475-4.136 4.575-5.501 1.672-2.095 3.345-4.193 5.02-6.284.592-.742 3.405-3.07 1.446-3.818-3.153-1.207-6.308-2.409-9.46-3.614 1.649-2.064 4.172-4.333 5.211-6.575.697-1.497-2.743-2.127-4.149-2.667-3.029-1.158-6.037-2.342-9.085-3.47-2.023-.75-5.85-2.989-8.113-2.981-2.131.005-3.092 2.493-3.94 3.55-1.732 2.171-3.474 4.335-5.21 6.51L2.245 32.414c6.118 2.333 12.236 4.671 18.356 7.008 3.145 1.197 6.282 2.403 9.42 3.597m3.6 47.183c-.495-1.14-.99-2.282-1.487-3.42-.046-.31-.182-.677-.354-1.056-.168-.566-.395-1.184-.774-1.552-.474-1.087-.945-2.176-1.417-3.264 3.072 1.053 6.036 2.235 9.114 3.288-1.76 1.981-3.325 4.026-5.082 6.004m7.851-6.518c-.501-.611-4.413-1.544-5.412-1.894-1.464-.512-7.498-3.447-6.32-.862.364.8 1.557 4.258 2.618 5.746.407.894.81 1.787 1.218 2.678 1.12 2.454 1.464 2.485 3.434.231 1.008-1.152 2.016-2.302 3.021-3.453l.098-.018c.387-.492 1.181-1.126 1.416-1.714.027-.034.055-.063.083-.095.218-.25.098-.442-.148-.601-.005-.003-.005-.011-.008-.018m-16.44-16.83c3.083-4.018 6.175-8.04 9.257-12.062.776-1.004 1.546-2.013 2.314-3.017 1.14-1.479 1.777-.623 3.691.156 2.95 1.202 5.922 2.357 8.89 3.535-1.938 2.53-3.883 5.056-5.828 7.589 3.518 1.393 7.026 2.792 10.539 4.189-2.174 2.836-4.432 5.632-6.526 8.502-7.446-2.966-14.89-5.926-22.338-8.892m25.167 9.483c1.549-1.852 3.098-3.705 4.65-5.555.455-.552 2.242-1.948 2.074-2.584-.192-.71-2.058-1.083-2.893-1.406-2.632-1.023-5.355-1.964-8.032-2.938 1.744-2.09 3.54-4.17 5.204-6.288 1.567-1.996-2.953-2.558-5.287-3.45-1.583-.606-3.198-1.164-4.816-1.732-.856-.294-3.17-1.575-4.086-1.401-1.902.363-4.099 4.435-5.147 5.629-1.975 2.253-3.855 4.545-5.757 6.828-.817.98-1.64 1.953-2.452 2.932-.55.654-1.103 1.316-1.654 1.973-.166.199 2.305.959 2.679 1.094 6.671 2.438 13.386 4.833 20.058 7.27 3.321 1.213 3.61 1.845 5.459-.372m-1.72-9.168c2.119.81 3.04.714 1.859 2.222-.716.916-1.555 1.786-2.306 2.689-1.073 1.3-2.616.05-4.34-.57-1.656-.59-3.28-1.236-4.911-1.863-3.013-1.158-6.127-2.218-9.162-3.345-.609-.225 8.67-11.004 9.722-12.238 1.207.445 2.449.846 3.656 1.294 1.511.561 3.556.794 2.635 1.99-1.67 2.145-3.536 4.213-5.204 6.356-.597.773 6.746 2.966 8.051 3.464m-12.36-18.267c4.523 1.7 9.031 3.399 13.55 5.104.503.182 4.02 1.353 3.853 1.58-.635.827-1.264 1.658-1.928 2.479-1.306 1.607-2.672 3.187-3.98 4.796 2.543.951 5.11 1.862 7.647 2.824.688.257 2.98.828 3.178 1.25.201.417-1.824 2.26-2.171 2.678-2.494 3.078-5.057 6.13-7.488 9.231-9.433-3.552-18.865-7.106-28.304-10.656 5.212-6.432 10.43-12.857 15.642-19.286m9.13 31.287c1.535.587 4.27 2.333 6.077 1.558 1.901-.812 3.48-4.133 4.579-5.503 1.677-2.095 3.35-4.189 5.028-6.28.776-.975 3.207-2.777 1.462-3.787-2.607-1.511-6.494-2.509-9.487-3.649 1.648-2.059 4.191-4.333 5.22-6.574.69-1.495-2.738-2.125-4.155-2.667-3.032-1.156-6.043-2.34-9.097-3.473-2.024-.747-5.856-2.983-8.124-2.976-2.126.005-3.092 2.492-3.945 3.547-1.735 2.168-3.471 4.341-5.211 6.513-3.385 4.23-6.772 8.455-10.159 12.683 6.132 2.34 12.25 4.674 18.38 7.011 3.147 1.201 6.29 2.396 9.431 3.597m-26.44-21.994c-2.486-6.198-4.965-12.39-7.447-18.583 5.57 2.212 11.138 4.43 16.71 6.642-3.07 3.984-6.195 7.952-9.264 11.943m1.576-15.922c-3.082-1.246-6.203-2.449-9.288-3.695-.93-.376-5.11-2.237-4.148.201l5.757 14.618 3.064 7.78c.99 2.517 2.81.285 3.74-.945 3.336-4.416 6.676-8.83 10.01-13.246.934-1.545-7.488-4.048-9.133-4.714m-2.947 3.532c1.51.487 2.97 1.094 4.558 1.495-.945.84-1.725 1.75-2.552 2.635l-2.006-4.13m-3.038-2.065l9.114 3.703c-1.756 2.183-3.314 4.442-5.066 6.623L14.397 43.74m4.36 12.24c2.603-2.257 4.312-5.626 6.275-8.213.01-1.397-7.936-3.76-9.712-4.477-1.993-.802-2.924-.992-2.195.856.573 1.445 1.143 2.885 1.711 4.33.626 1.572 1.246 3.147 1.868 4.721.154.39 1.03 3.665 2.052 2.783m57.16-5.157c-1.695-.677-.114-1.586.66-2.624.6-.818 1.372-1.596 2.02-2.394 1.576.568 17.95 6.573 17.833 6.715-1.685 2.07-3.369 4.137-5.054 6.21-.836 1.031-1.663 2.07-2.525 3.093-.601.714-1.684 2.966-2.906 2.506-1.426-.532-2.876-1.023-4.267-1.595-2.268-.933-1.796-.852-.538-2.484.44-.569 4.882-5.59 4.479-5.75-3.2-1.273-6.509-2.408-9.701-3.676m6.84-34.564c-4.123 5.373-8.233 10.75-12.35 16.123-3.89-1.628-7.824-3.199-11.804-4.71 1.943-2.535 3.88-5.07 5.823-7.602-3.511-1.4-7.022-2.804-10.532-4.204 1.701-2.115 3.301-4.262 4.906-6.413 1.045-1.403.953-2.37 3.011-1.547C63.207 8.46 64.604 9.02 66 9.574c5.586 2.23 11.172 4.46 16.757 6.687M64.82 7.775c-.861-.33-2.536-1.344-3.54-1.187-1.46.235-3.997 4.603-4.754 5.607-1.155 1.52-4.26 3.516-1.557 4.614 2.857 1.168 5.79 2.26 8.697 3.375-1.356 1.705-2.718 3.412-4.073 5.118-1.875 2.35-1.119 2.226 2.202 3.501 2.295.88 4.597 1.766 6.895 2.643 3.621 1.387 3.404 1.404 5.397-1.097 3.35-4.207 6.76-8.388 10.11-12.595.266-.336 1.725-1.659 1.59-1.993-.124-.29-2.13-.816-2.531-.97-1.313-.501-2.628-1.005-3.94-1.51-3.152-1.21-6.276-2.454-9.461-3.615-1.693-.616-3.362-1.25-5.034-1.891m-4.956 4.288c.603-.823 1.32-1.61 2.02-2.394 1.572.568 17.945 6.57 17.834 6.716-1.686 2.068-3.372 4.136-5.055 6.204-.838 1.034-1.658 2.075-2.525 3.099-.603.713-1.684 2.962-2.906 2.506l-4.436-1.666c-2.253-.846-1.477-1.015-.29-2.518.701-.886 5.117-5.362 4.014-5.8-3.068-1.223-6.25-2.304-9.317-3.527-1.691-.666-.113-1.578.66-2.62M.725 7.604C3.8 8.766 6.763 10.07 9.84 11.231c-1.685 2.236-3.368 4.466-5.053 6.698C3.431 14.487 2.078 11.047.725 7.604m4.364 12.279c1.31-.666 2.437-3.196 3.191-4.217 1.008-1.37 2.055-2.718 3.078-4.072-.019-1.431-7.917-3.704-9.696-4.424-2.011-.81-2.948-1.034-2.2.862l1.87 4.739 1.871 4.742c.23.582.57 3.03 1.886 2.37m77.624 25.833c5.585 2.226 11.168 4.454 16.755 6.682-4.12 5.372-8.233 10.743-12.35 16.123-3.892-1.632-7.824-3.2-11.799-4.714 1.936-2.534 3.875-5.067 5.816-7.6-3.51-1.404-7.02-2.8-10.53-4.206 1.7-2.113 3.3-4.257 4.905-6.41 1.048-1.398.954-2.37 3.01-1.549 1.398.556 2.794 1.114 4.193 1.674m-10.995 2.616c-1.155 1.522-4.26 3.514-1.558 4.613 2.856 1.168 5.795 2.258 8.699 3.373-1.353 1.703-2.787 3.398-4.073 5.125-.414.55-1.587 1.485-1.212 2.13.328.56 2.679 1.083 3.412 1.364 2.296.885 4.597 1.766 6.895 2.644 3.622 1.391 3.408 1.404 5.398-1.097 3.35-4.206 6.758-8.39 10.111-12.594.268-.338 1.725-1.658 1.588-1.992-.122-.29-2.13-.815-2.53-.972-1.313-.502-2.627-1.003-3.937-1.507-3.154-1.21-6.276-2.453-9.466-3.618-1.689-.614-3.359-1.247-5.034-1.89-.86-.331-2.54-1.342-3.536-1.186-1.462.234-4 4.605-4.757 5.607M88.37 71.619c-5.776-2.253-11.61-4.449-17.479-6.586.996-1.226 1.927-2.478 2.928-3.71.422-.522 3.284-3.12 3.056-3.66-.228-.543-4.683-1.708-5.446-1.99-1.811-.684-3.58-1.41-5.383-2.09 3.303-3.938 6.44-7.938 9.66-11.907 9.441 3.556 18.88 7.103 28.32 10.659L88.37 71.619m14.56-22.251c-1.555-.593-3.11-1.184-4.665-1.782-3.195-1.217-6.393-2.44-9.594-3.655l-9.43-3.6c-1.53-.585-4.265-2.333-6.075-1.557-1.918.827-3.439 4.127-4.573 5.503-1.716 2.078-3.352 4.189-5.027 6.28-.78.975-3.198 2.77-1.463 3.785 2.596 1.519 6.503 2.509 9.49 3.647-1.658 2.064-4.182 4.337-5.224 6.574-.697 1.494 2.749 2.134 4.155 2.668l9.095 3.47c1.982.759 5.88 2.989 8.114 2.982 2.132-.008 3.102-2.494 3.945-3.55 1.736-2.17 3.476-4.338 5.211-6.511 1.771-2.206 3.533-4.415 5.306-6.623.812-1.012 1.62-2.025 2.434-3.04.467-.581 2.642-2.485 2.419-3.02-.203-.482-3.388-1.295-4.117-1.571M71.664 35.482c-5.783-2.269-11.614-4.477-17.483-6.621.993-1.235 1.927-2.498 2.927-3.734.422-.526 3.282-3.137 3.054-3.678-.229-.548-4.68-1.717-5.446-2.01-1.81-.683-3.58-1.408-5.379-2.091 2.175-2.607 4.234-5.257 6.36-7.882 1.027-1.282 2.06-2.555 3.097-3.837.406-.503 4.22 1.257 5.237 1.624 7.836 2.843 15.519 5.9 23.284 8.84-5.216 6.462-10.435 12.924-15.65 19.389m21.708-20.678c-.203-.485-3.39-1.297-4.113-1.572-1.56-.592-3.114-1.187-4.666-1.778-3.2-1.221-6.397-2.443-9.595-3.66-3.143-1.198-6.286-2.4-9.432-3.597-1.53-.585-4.262-2.337-6.074-1.56-1.922.827-3.439 4.13-4.573 5.505-1.716 2.075-3.35 4.186-5.024 6.28-.78.966-3.206 2.77-1.463 3.783 2.608 1.516 6.497 2.509 9.487 3.65-1.75 2.18-3.494 4.356-5.237 6.536-1.084 1.356 3.097 2.293 4.17 2.702 3.03 1.156 6.064 2.315 9.096 3.475 1.979.751 5.874 2.984 8.113 2.978 2.13-.009 3.097-2.494 3.943-3.552 1.742-2.165 3.475-4.34 5.211-6.51l5.305-6.618c.812-1.017 1.618-2.03 2.432-3.048.467-.58 2.647-2.477 2.42-3.014M34.615 88.138l-.487-1.013c-.7-.906-1.257-2.607-1.501-3.116l.894.298c1.218.11 2.767.857 3.662 1.153-.746.737-1.426 1.471-2.077 2.24-.029.005-.053-.014-.079-.011-.139.149-.274.3-.412.449m16.24-63.015c-.353.31-1.79 1.999-2.289 2.09-.584.107-3.188-.82-3.787-.97.391-.383 1.688-1.994 2.402-2.108.677-.119 3.039.803 3.675.988m-10.634.072c.38-.369 1.613-1.945 2.283-2.087.7-.147 3.143.782 3.792.97-.394.377-1.688 1.984-2.406 2.101-.681.114-3.044-.804-3.67-.984m13.673-3.167c-.38.365-1.613 1.946-2.288 2.08-.7.146-3.141-.777-3.788-.963.393-.38 1.69-1.993 2.397-2.109.693-.107 3.052.81 3.679.992M76.68.377c-1.533-.49-3.006-1.046-4.558-1.514.834-.87 1.667-1.746 2.503-2.616.683 1.375 1.37 2.75 2.055 4.13M53.217-18.62c-1.022-.403-2.078-.754-3.124-1.122-1.04-.372-2.074-.755-3.086-1.154-1.556-.62-2.85-.605-1.91-1.757 1.039-1.278 2-2.568 3.115-3.816 5.985 2.163 11.906 4.397 17.834 6.618-2.547 3.014-4.892 6.102-7.442 9.119-.8.944-1.599 1.892-2.4 2.836-.116.135-2.504-.843-2.892-.99-1.105-.418-2.207-.827-3.314-1.237-1.119-.422.246-1.33.75-1.986 1.182-1.54 2.563-2.994 3.747-4.53 1.066-1.388.702-1.196-1.278-1.98m-6.172 40.662c-.695.15-3.136-.8-3.785-.997.76-.68 1.518-1.367 2.271-2.052.248-.222 3.269.76 3.806.902-.385.376-1.62 2.009-2.292 2.147M78.2 2.442c-3.037-1.234-6.074-2.47-9.115-3.703C70.843-3.444 72.4-5.7 74.153-7.883 75.5-4.439 76.852-.999 78.2 2.442M75.343-8.733c-.763-1.9-1.302-1.342-2.494.113-1.041 1.275-6.188 6.313-5.144 7.53 1.9.748 3.81 1.482 5.696 2.251 1.486.6 4.295 2.258 6.01 2.313 1.273.037-1.79-6.556-2.157-7.467-.638-1.58-1.273-3.162-1.911-4.74M.725 9.669c1.505.486 2.99 1.011 4.558 1.425-.997.84-1.686 1.813-2.539 2.705L.724 9.67m54.689 51.658c.383-.369 1.614-1.95 2.287-2.083.702-.146 3.14.78 3.79.966-.399.375-1.689 1.992-2.407 2.106-.675.113-3.04-.806-3.67-.989m13.672-3.166c-.378.367-1.615 1.95-2.288 2.085-.696.146-3.139-.784-3.788-.969.393-.374 1.688-1.99 2.402-2.103.686-.117 3.049.804 3.674.987m-6.714 2.11c.68-.115 3.047.81 3.675.988-.357.31-1.79 1.996-2.286 2.091-.596.106-3.193-.825-3.79-.972.391-.378 1.69-1.991 2.401-2.107m-3.92-3.086c.759-.686 1.517-1.366 2.267-2.054.245-.221 3.27.761 3.81.902-.39.378-1.621 2.007-2.289 2.148-.706.147-3.14-.804-3.788-.996m15.15 17.807c.305.087.616.155.92.237 1.225.173 2.426.557 3.68.952-.898 1.02-2.062 1.926-3.024 2.923-.041.005-.08.015-.12.025-.58.61-2.152 2.642-2.825 2.798-.724.17-3.85-1.061-4.62-1.267-.381-.104-.76-.196-1.14-.295-1.132-.205-2.247-.576-3.463-.898.592-.544 1.173-1.094 1.765-1.643.433-.424.86-.85 1.255-1.282.044-.012.088-.018.133-.027.607-.666 2.076-2.65 2.915-2.815.858-.172 3.694 1.052 4.525 1.292M25.03-11.914c.383-.383 1.614-2.007 2.29-2.148.702-.148 3.138.804 3.787.997-.763.68-1.526 1.364-2.268 2.052-.246.222-3.267-.765-3.809-.902m7.597 19.102c1.025-.938 2.069-1.867 3.052-2.844.535-.537 2.135-2.742 3.018-2.917.855-.171 3.694 1.055 4.524 1.287 1.52.434 3.058.806 4.597 1.19-1.051.957-2.022 1.937-3.02 2.924-.5.497-2.187 2.647-2.945 2.823-.782.18-3.807-.965-4.597-1.19-1.54-.44-3.063-.883-4.63-1.273M61.49 40.045c-1.03.937-2.049 1.887-3.052 2.844-.496.479-2.215 2.736-2.916 2.901-.72.17-3.85-1.055-4.626-1.268-1.528-.413-3.064-.808-4.597-1.19 1.002-.981 2.006-1.952 3.022-2.923.527-.515 2.232-2.69 3.047-2.847.785-.16 3.69.996 4.492 1.216 1.55.413 3.086.834 4.63 1.268M37.182-11.019c-.356.308-1.791 2.003-2.288 2.095-.586.107-3.191-.823-3.788-.97.727-.705 1.472-1.392 2.232-2.081.289-.248 3.318.802 3.844.956m1.52-3.09c-.357.307-1.789 1.996-2.29 2.088-.585.106-3.19-.82-3.787-.97.393-.379 1.688-1.994 2.398-2.109.688-.115 3.048.803 3.678.992m-10.633-.981c.758-.685 1.52-1.367 2.268-2.053.25-.224 3.269.756 3.809.9-.385.377-1.62 2.01-2.293 2.15-.698.144-3.137-.81-3.784-.997m47.206 3.077C77.77-5.814 80.265.378 82.757 6.572 77.188 4.37 71.621 2.172 66.05-.035c-.188-.071 8.433-10.947 9.225-11.977m6.414 20.746c1.67.706 4.928 1.951 3.915-.586L82.486.322l-5.785-14.515c-.957-2.398-3.11.573-3.726 1.371-1.722 2.26-3.555 4.481-5.204 6.766-.843 1.171-6.248 6.68-4.366 7.481 6.015 2.543 12.275 4.77 18.285 7.31M26.659-28.548c-.723.153-3.847-.962-4.622-1.15-1.532-.376-3.065-.733-4.602-1.083 1.047-.842 2.1-1.736 3.023-2.652l5.875-1.154c2.213-.435 4.17.218 6.294.826-1.036.852-2.05 1.708-3.05 2.582-.498.431-2.213 2.482-2.92 2.63M-5.352-5.344c4.108-5.32 8.234-10.637 12.342-15.96 3.939 1.552 7.87 3.11 11.808 4.66-1.94 2.512-3.883 5.018-5.825 7.527 3.513 1.387 7.031 2.774 10.54 4.162-2.18 2.814-4.438 5.587-6.531 8.43C9.54.534 2.09-2.402-5.352-5.345m24.488 8.38C20.56 1.182 21.987-.67 23.42-2.522c1.857-2.413 2.689-2.627-.758-3.995-2.466-.981-4.936-1.957-7.403-2.932 1.612-2.09 3.26-4.169 4.798-6.289 1.446-1.996-2.722-2.563-4.876-3.455-1.46-.604-2.949-1.166-4.44-1.725-.789-.299-2.92-1.576-3.767-1.401-1.698.351-3.847 4.407-4.76 5.59-1.766 2.287-3.529 4.576-5.295 6.865-.752.98-1.508 1.956-2.259 2.934-.509.654-1.015 1.315-1.526 1.966-.15.203 2.127.964 2.474 1.103C1.757-1.426 7.946.966 14.099 3.405c3.068 1.215 3.326 1.843 5.037-.37m-.98-8.219c.911.364 2.768.654 2.218 1.4-.497.67-1.086 1.294-1.618 1.95-.282.338-1.312 2.078-1.802 2.2-.584.15-3.445-1.243-4.057-1.465C8.296-2.764 3.804-4.561-.794-6.224c3.26-4.001 6.506-8.014 9.853-11.983 1.925.653 3.841 1.328 5.678 2.09 1.605.657.501 1.128-.303 2.178-.54.699-1.108 1.395-1.694 2.081-.597.685-1.215 1.362-1.759 2.067-1.052 1.372-1.512 1.343.474 2.131 2.198.872 4.499 1.603 6.7 2.476m25.648-27.479c9.437 3.553 18.88 7.106 28.32 10.658-5.216 6.43-10.438 12.855-15.65 19.285-5.784-2.253-11.615-4.451-17.485-6.583.994-1.229 1.925-2.483 2.927-3.712.422-.524 3.285-3.119 3.057-3.664-.23-.54-4.685-1.706-5.448-1.993-1.811-.68-3.58-1.405-5.378-2.082 3.304-3.936 6.431-7.939 9.657-11.908m-12.08 14.72c2.6 1.514 6.517 2.506 9.513 3.645-1.753 2.178-3.502 4.358-5.252 6.535-1.13 1.404 3.608 2.48 4.734 2.909 2.897 1.103 5.8 2.207 8.701 3.308 2.409.917 5.434 2.605 8.116 2.942 1.887.244 3.37-2.981 4.048-3.822 1.775-2.206 3.546-4.415 5.315-6.618.884-1.103 9.95-12.27 9.78-12.334-6.106-2.325-12.213-4.645-18.32-6.968l-9.457-3.6c-1.53-.584-4.27-2.33-6.087-1.556-1.927.828-3.451 4.124-4.584 5.504-1.719 2.077-3.362 4.183-5.039 6.273-.78.973-3.21 2.767-1.466 3.782M5.734-24.403l13.55 5.103c.502.186 4.021 1.353 3.852 1.579-.636.833-1.263 1.66-1.929 2.48-1.307 1.605-2.67 3.188-3.978 4.796 2.542.953 5.11 1.865 7.644 2.822.692.256 2.986.828 3.183 1.255.2.415-1.828 2.257-2.173 2.674-2.494 3.078-5.052 6.132-7.489 9.234C8.964 1.985-.474-1.567-9.909-5.12-4.695-11.546.522-17.975 5.732-24.4m7.67 30.257c1.532.58 4.277 2.328 6.088 1.554 1.904-.817 3.488-4.134 4.59-5.508 1.682-2.09 3.364-4.185 5.039-6.277 1.004-1.252 3.043-2.645 1.321-3.868-2.135-1.515-6.66-2.534-9.365-3.565 1.651-2.061 4.2-4.335 5.233-6.574.691-1.494-2.744-2.127-4.161-2.667-3.042-1.157-6.059-2.338-9.121-3.47-2.028-.751-5.866-2.986-8.135-2.98-2.132.006-3.104 2.491-3.956 3.547-1.736 2.17-3.478 4.341-5.221 6.516-3.397 4.224-6.788 8.452-10.18 12.68C-8.326-2.418-2.191-.08 3.95 2.253c3.154 1.202 6.303 2.4 9.453 3.604m31.824-35.421c7.444 2.943 14.892 5.88 22.339 8.822-4.12 5.319-8.238 10.639-12.348 15.957-3.888-1.612-7.823-3.164-11.802-4.656 1.935-2.512 3.881-5.02 5.817-7.528l-10.53-4.161c2.261-2.782 4.344-5.62 6.524-8.434m3.246 13.61c-1.358 1.706-2.72 3.41-4.073 5.12-1.869 2.35-1.116 2.226 2.206 3.5 2.295.882 4.593 1.761 6.894 2.648 3.619 1.384 3.403 1.398 5.396-1.103 3.356-4.204 6.762-8.39 10.112-12.598.267-.333 1.727-1.655 1.587-1.989-.12-.29-2.127-.816-2.528-.972-1.314-.501-2.629-1.005-3.942-1.51-3.157-1.21-6.311-2.424-9.468-3.634-1.663-.636-3.354-1.243-5.025-1.87-.875-.327-2.54-1.346-3.54-1.184-1.46.227-3.996 4.604-4.758 5.602-1.154 1.52-4.259 3.518-1.557 4.617 2.854 1.164 5.795 2.257 8.697 3.374" style="mix-blend-mode:lighten" mask="url(#prefix__d)" transform="rotate(5 37.183 59.229)"/>
        </g>
    </g>
</svg>
